<?xml version="1.0" standalone="no"?>
<!DOCTYPE svg PUBLIC "-//W3C//DTD SVG 20010904//EN"
 "http://www.w3.org/TR/2001/REC-SVG-20010904/DTD/svg10.dtd">
<svg version="1.0" xmlns="http://www.w3.org/2000/svg"
 width="6884.000000pt" height="6884.000000pt" viewBox="0 0 6884.000000 6884.000000"
 preserveAspectRatio="xMidYMid meet">
<metadata>
Created by potrace 1.14, written by Peter Selinger 2001-2017
</metadata>
<g transform="translate(0.000000,6884.000000) scale(0.100000,-0.100000)"
fill="#000000" stroke="none">
<path d="M57692 57985 c-58 -18 -65 -25 -116 -119 -110 -203 -183 -358 -266
-561 -29 -71 -58 -143 -65 -160 -13 -29 -122 -345 -131 -375 -2 -8 -24 -85
-49 -170 -40 -137 -126 -472 -139 -540 -2 -14 -16 -79 -29 -145 -14 -66 -28
-140 -32 -165 -4 -24 -8 -47 -10 -50 -2 -3 -6 -26 -10 -50 -3 -25 -8 -52 -10
-60 -4 -12 -28 -170 -50 -320 -3 -19 -10 -62 -15 -95 -5 -33 -11 -82 -15 -110
-3 -27 -10 -84 -15 -125 -5 -41 -12 -97 -15 -125 -3 -27 -8 -66 -10 -85 -2
-19 -7 -60 -10 -90 -3 -30 -7 -75 -10 -100 -9 -90 -15 -146 -20 -215 -3 -38
-7 -83 -10 -100 -2 -16 -7 -75 -10 -130 -4 -55 -9 -116 -11 -135 -9 -89 -5
-157 12 -200 84 -213 393 -421 692 -466 20 -3 48 -7 62 -10 56 -10 259 -4 336
10 291 53 434 126 551 280 76 101 151 287 177 441 3 17 10 53 15 80 5 28 13
77 16 110 4 33 9 62 10 65 25 42 25 801 1 927 -2 10 -7 63 -11 118 -3 54 -8
102 -10 105 -1 3 -6 41 -10 84 -4 43 -8 88 -10 98 -2 11 -7 47 -10 81 -3 34
-8 78 -10 97 -2 19 -7 60 -10 90 -3 30 -7 69 -9 85 -2 17 -7 71 -10 120 -4 50
-9 106 -11 125 -4 31 -7 81 -20 295 -3 62 -16 194 -21 218 -2 10 -6 46 -9 80
-3 35 -7 71 -9 82 -2 11 -7 45 -11 75 -9 66 -14 96 -60 322 -12 61 -62 225
-87 293 -128 334 -307 483 -506 420z"/>
<path d="M31390 54107 c-24 -56 -56 -129 -71 -162 -79 -174 -152 -343 -156
-362 -3 -13 -9 -23 -14 -23 -5 0 -9 -6 -9 -14 0 -8 -13 -43 -29 -78 -33 -70
-140 -314 -268 -608 -47 -107 -101 -228 -119 -268 -19 -41 -34 -75 -34 -77 0
-4 -13 -33 -65 -150 -11 -25 -58 -133 -140 -320 -7 -16 -32 -73 -55 -125 -62
-138 -80 -180 -102 -230 -27 -62 -42 -97 -67 -153 -12 -26 -87 -197 -167 -379
-80 -183 -153 -350 -164 -372 -10 -23 -29 -68 -43 -101 -14 -33 -39 -89 -55
-125 -16 -36 -46 -103 -67 -150 -20 -47 -44 -101 -52 -120 -8 -19 -21 -48 -28
-65 -54 -124 -91 -207 -110 -250 -12 -27 -37 -84 -55 -125 -18 -41 -47 -108
-66 -148 -19 -41 -34 -80 -34 -88 0 -8 -4 -14 -10 -14 -5 0 -10 -6 -10 -14 0
-7 -16 -49 -36 -92 -20 -44 -83 -187 -141 -319 -58 -132 -116 -264 -129 -293
-13 -29 -35 -79 -49 -112 -14 -33 -37 -85 -51 -116 -14 -31 -40 -91 -58 -133
-19 -42 -68 -155 -111 -251 -42 -96 -88 -201 -102 -234 -13 -32 -40 -92 -59
-133 -18 -41 -34 -76 -34 -78 0 -3 -117 -270 -151 -344 -11 -24 -29 -64 -39
-90 -10 -25 -29 -71 -43 -101 -44 -98 -61 -136 -367 -835 -166 -379 -308 -706
-317 -725 -8 -19 -21 -48 -28 -65 -7 -16 -26 -57 -41 -90 l-28 -60 3 -2180 c5
-5360 6 -5555 16 -5556 18 -1 73 -15 285 -73 136 -37 425 -120 528 -152 62
-19 120 -37 130 -39 18 -4 290 -91 410 -131 40 -13 73 -24 75 -24 1 0 2 1110
2 2468 -1 1357 3 2486 7 2510 9 54 48 105 96 128 35 16 166 17 2354 17 2500 0
2356 3 2407 -52 58 -63 54 225 54 -3676 0 -1970 -3 -3590 -6 -3600 -6 -22 -24
-13 598 -316 257 -125 398 -192 745 -356 52 -25 121 -58 154 -74 32 -16 62
-29 67 -29 9 0 8 1691 -6 7235 -2 930 -5 2205 -6 2835 l-1 1144 -28 61 c-15
33 -64 136 -109 229 -45 93 -81 170 -81 171 0 1 -38 81 -84 176 -46 96 -95
199 -109 229 -14 30 -57 123 -97 205 -40 83 -85 177 -100 210 -28 61 -82 175
-185 390 -31 66 -72 152 -90 190 -18 39 -57 122 -88 185 -30 63 -76 160 -102
215 -26 55 -70 147 -97 205 -28 58 -65 137 -83 175 -18 39 -61 129 -95 200
-34 72 -78 164 -97 205 -19 41 -60 127 -90 190 -132 275 -201 421 -278 585
-18 39 -72 150 -119 249 -47 98 -86 180 -86 181 0 2 -32 70 -71 152 -39 81
-88 184 -109 228 -21 44 -61 130 -90 190 -29 61 -75 157 -102 215 -28 58 -73
152 -100 210 -28 58 -69 146 -93 195 -23 50 -63 134 -89 188 -71 150 -184 387
-286 602 -28 61 -66 139 -82 175 -17 36 -68 143 -114 239 -46 95 -84 175 -84
176 0 1 -36 79 -81 171 -45 93 -94 196 -109 229 -26 56 -64 137 -192 405 -28
58 -70 147 -94 198 -125 264 -165 348 -295 621 -38 79 -69 147 -69 152 0 4 -4
10 -8 13 -4 3 -28 -41 -52 -97z"/>
<path d="M46088 53980 c-71 -18 -104 -36 -137 -71 -109 -117 -56 -362 151
-699 46 -76 127 -198 158 -240 118 -158 170 -225 281 -360 70 -85 140 -169
155 -187 16 -17 40 -44 53 -60 168 -198 665 -709 796 -818 33 -27 141 -120
239 -205 99 -85 234 -202 300 -259 67 -56 133 -113 147 -126 41 -36 268 -208
339 -257 193 -133 421 -254 595 -313 180 -62 471 -100 529 -70 91 48 364 300
472 435 32 41 61 77 65 80 14 13 90 155 112 211 65 164 66 386 1 511 -8 15
-12 28 -10 28 8 0 -63 121 -109 185 -130 183 -297 324 -865 733 -74 53 -136
100 -138 104 -2 5 -9 8 -15 8 -6 0 -18 7 -28 16 -22 19 -179 128 -394 273
-684 460 -1286 777 -1802 950 -157 52 -343 101 -443 115 -8 2 -28 6 -45 9
-119 26 -322 30 -407 7z"/>
<path d="M20682 53434 c-290 -84 -364 -110 -492 -170 -234 -112 -426 -248
-606 -428 -213 -214 -339 -403 -460 -689 -26 -60 -81 -213 -90 -249 -2 -10 -6
-26 -9 -35 -2 -10 -15 -60 -28 -111 -14 -51 -27 -95 -30 -98 -7 -7 -66 -12
-252 -19 -154 -6 -189 -8 -320 -21 -75 -7 -233 -39 -322 -65 -37 -11 -75 -21
-83 -24 -82 -23 -234 -88 -355 -153 -461 -246 -822 -650 -1020 -1142 -50 -123
-120 -379 -130 -476 -4 -32 -8 -61 -10 -64 -6 -10 -17 -186 -19 -310 -2 -140
-11 -160 -103 -233 -327 -260 -532 -501 -687 -812 -61 -121 -68 -135 -104
-230 -21 -54 -78 -244 -86 -285 -21 -111 -26 -141 -31 -180 -3 -25 -8 -58 -11
-75 -15 -89 -9 -425 10 -530 3 -16 8 -48 10 -71 11 -83 78 -322 123 -434 62
-155 124 -281 174 -352 11 -14 19 -29 19 -32 0 -8 59 -92 119 -171 74 -97 76
-100 233 -263 119 -123 118 -120 133 -396 3 -54 7 -101 9 -105 2 -3 6 -28 10
-56 38 -312 192 -699 385 -970 458 -642 1210 -993 1994 -932 193 15 403 61
587 127 63 23 146 53 183 66 64 24 71 24 115 11 26 -8 126 -66 222 -129 338
-222 531 -331 682 -387 79 -29 267 -66 371 -73 20 -2 27 -8 28 -23 0 -11 2
-31 4 -45 6 -54 22 -316 30 -510 5 -130 6 -163 20 -390 4 -58 8 -132 10 -165
22 -364 22 -993 0 -1075 -2 -8 -7 -51 -10 -94 -4 -43 -8 -86 -10 -95 -1 -9 -6
-45 -10 -81 -4 -36 -9 -72 -10 -82 -2 -9 -7 -38 -11 -65 -3 -26 -8 -55 -10
-65 -1 -9 -6 -38 -10 -65 -3 -26 -8 -57 -10 -68 -2 -11 -11 -58 -19 -105 -15
-87 -18 -99 -35 -185 -5 -27 -12 -66 -15 -85 -4 -19 -10 -53 -15 -75 -5 -22
-12 -60 -15 -85 -4 -24 -9 -48 -11 -52 -3 -4 -7 -22 -9 -40 -3 -18 -7 -42 -9
-53 -8 -35 -95 -469 -101 -505 -3 -19 -10 -52 -14 -72 -5 -21 -6 -39 -2 -39
12 -3 100 -7 496 -24 149 -7 343 -16 400 -20 33 -2 112 -7 175 -10 63 -4 135
-8 160 -10 25 -2 90 -6 145 -9 55 -4 118 -9 140 -11 22 -2 85 -7 140 -10 55
-4 111 -8 125 -10 14 -2 66 -7 115 -10 50 -3 106 -8 125 -10 32 -4 71 -8 215
-20 28 -2 73 -7 100 -9 28 -3 77 -8 111 -12 l61 -6 -69 339 c-38 186 -71 349
-74 363 -2 14 -21 90 -40 170 -20 80 -38 152 -39 160 -2 8 -10 44 -19 80 -36
154 -67 385 -83 605 -17 249 0 772 32 985 2 14 7 51 10 83 4 32 8 66 10 75 2
10 6 45 10 77 4 33 9 69 11 80 2 10 6 37 9 60 11 76 36 200 52 250 14 46 72
174 83 185 3 3 18 24 33 47 34 49 103 116 288 278 19 16 61 54 94 85 53 48
179 162 279 253 54 50 140 129 183 170 l41 39 89 -50 c181 -102 408 -188 623
-235 113 -25 138 -30 270 -45 125 -14 442 -7 550 12 14 3 41 7 60 10 19 3 45
8 58 11 12 3 30 7 40 9 367 82 727 266 996 508 226 202 396 427 532 703 119
243 109 165 112 897 2 350 4 696 6 770 l3 133 76 190 c113 283 167 418 177
440 11 24 17 40 135 330 157 388 246 609 260 640 7 17 35 86 63 155 112 279
225 557 237 585 7 17 50 122 95 235 45 113 85 214 90 225 10 23 20 46 155 380
143 352 142 349 138 375 -8 55 -57 220 -90 305 -60 152 -156 335 -247 470 -47
70 -33 52 -145 191 -329 408 -808 740 -1296 897 -122 39 -153 47 -305 77 -182
36 -224 70 -315 251 -82 166 -143 263 -248 399 -336 432 -874 744 -1407 816
-19 2 -64 8 -100 13 -83 11 -389 12 -457 1 -29 -5 -78 -11 -109 -15 -32 -3
-60 -8 -63 -10 -3 -1 -24 -6 -46 -9 -174 -27 -540 -164 -668 -249 -33 -23 -25
-30 -116 104 -276 403 -609 680 -1016 846 -95 39 -270 97 -325 107 -51 10
-187 38 -255 53 -51 11 -133 16 -298 17 l-227 1 -248 -71z m2221 -8931 c13
-79 19 -110 38 -188 77 -306 232 -615 433 -864 l69 -85 -44 -39 c-24 -21 -61
-53 -83 -70 -21 -18 -43 -36 -50 -42 -139 -121 -397 -278 -563 -342 -86 -32
-201 -37 -251 -10 -71 38 -107 146 -97 288 6 96 15 197 20 229 2 14 7 48 10
75 4 28 8 61 10 75 6 39 19 124 20 130 1 3 5 30 9 60 5 30 10 64 12 75 2 11 7
40 10 65 3 24 13 67 20 95 32 112 46 172 50 220 14 176 92 272 278 341 89 33
102 32 109 -13z m-2013 -33 c138 -59 353 -127 455 -145 17 -2 41 -7 55 -10 13
-2 42 -7 65 -10 22 -4 53 -8 69 -11 92 -15 334 -20 477 -10 l87 6 -83 -287
c-87 -301 -162 -523 -199 -584 -74 -124 -151 -152 -253 -93 -108 62 -297 304
-458 584 -108 188 -320 604 -304 597 8 -3 48 -20 89 -37z m-391 -72 c5 -13 40
-88 79 -168 38 -80 90 -188 115 -240 25 -52 83 -175 130 -272 47 -98 81 -180
76 -184 -22 -13 -195 9 -294 38 -101 29 -251 97 -370 168 -27 16 -63 37 -80
46 -16 9 -47 28 -68 41 l-38 24 28 37 c15 20 30 39 33 42 3 3 30 39 60 80 30
41 59 80 65 87 5 6 62 81 125 167 63 86 118 156 123 156 4 0 11 -10 16 -22z"/>
<path d="M56767 52604 c-1 -1 -60 -5 -132 -8 -71 -3 -154 -8 -182 -11 -29 -3
-79 -7 -110 -10 -124 -12 -356 -42 -428 -55 -27 -5 -68 -12 -89 -15 -21 -3
-48 -7 -60 -10 -12 -3 -32 -7 -46 -9 -133 -23 -439 -96 -615 -147 -235 -69
-575 -186 -692 -240 -24 -10 -45 -19 -48 -19 -29 0 -528 -239 -715 -344 -311
-173 -691 -422 -896 -589 -10 -9 -68 -56 -129 -105 -369 -298 -748 -691 -1046
-1082 -97 -127 -299 -414 -299 -424 0 -3 -17 -31 -39 -63 -146 -220 -379 -673
-511 -993 -78 -188 -213 -571 -226 -639 -3 -14 -7 -28 -9 -32 -15 -23 -127
-470 -149 -592 -2 -15 -7 -35 -10 -45 -3 -9 -7 -35 -11 -57 -3 -22 -7 -47 -10
-55 -2 -8 -6 -26 -9 -40 -3 -14 -10 -50 -16 -80 -45 -210 3 -338 151 -404 257
-113 491 26 705 419 70 128 78 143 189 330 127 215 290 465 334 512 16 18 36
41 43 52 24 35 203 225 323 345 384 382 809 713 1323 1030 68 42 126 76 129
76 3 0 17 8 31 18 25 18 69 43 237 134 149 81 407 209 549 273 152 68 419 175
436 175 6 0 18 4 28 9 20 11 212 74 292 95 30 8 80 22 110 30 30 9 107 28 170
42 123 28 122 27 190 40 25 4 47 8 50 9 3 0 27 4 53 9 27 4 58 9 69 11 11 3
46 7 77 11 31 3 64 8 75 10 10 2 53 6 94 10 42 3 84 7 93 9 31 6 310 18 419
17 116 0 364 -10 395 -16 11 -2 58 -7 105 -11 47 -4 94 -9 105 -11 11 -2 45
-7 75 -10 30 -3 62 -7 70 -9 8 -2 35 -7 60 -10 45 -6 226 -42 353 -69 298 -65
803 -235 1075 -362 40 -19 75 -34 77 -34 3 0 64 -29 135 -65 446 -222 822
-496 1205 -880 187 -186 254 -260 407 -446 119 -146 308 -396 308 -409 0 -4 4
-10 9 -12 11 -4 125 -181 182 -283 45 -81 159 -311 159 -321 0 -3 11 -30 25
-60 106 -231 270 -826 329 -1194 3 -19 7 -44 10 -55 2 -11 7 -40 10 -65 3 -25
8 -54 10 -65 2 -11 7 -47 10 -80 4 -33 9 -73 11 -90 28 -234 27 -703 -1 -935
-4 -34 -10 -75 -20 -150 -10 -69 -56 -287 -75 -360 -12 -41 -24 -88 -29 -105
-4 -16 -37 -140 -73 -275 -51 -189 -151 -580 -193 -750 -2 -8 -8 -35 -15 -60
-6 -25 -12 -53 -14 -63 -2 -10 -7 -27 -10 -37 -3 -10 -7 -27 -10 -37 -2 -10
-24 -99 -49 -199 -89 -356 -97 -466 -41 -578 45 -92 125 -163 360 -323 178
-120 343 -251 486 -385 57 -53 115 -106 129 -117 14 -11 30 -25 36 -29 48 -40
164 -110 234 -140 71 -31 195 -43 278 -28 107 20 242 90 389 200 117 88 307
271 400 386 53 66 213 301 213 314 0 2 17 33 38 67 133 219 320 605 429 884
106 273 232 673 278 885 2 8 13 58 25 110 12 52 26 118 31 145 5 28 11 61 14
75 13 64 37 209 41 245 3 22 9 65 14 95 5 30 12 87 16 125 3 39 8 79 10 90 2
11 6 54 10 95 3 41 7 96 9 121 22 260 22 880 0 1034 -3 17 -7 62 -10 100 -7
94 -13 162 -19 210 -3 22 -8 63 -11 90 -3 28 -8 61 -10 75 -3 14 -7 39 -9 55
-98 628 -268 1228 -491 1740 -7 17 -30 68 -50 115 -37 84 -194 402 -232 470
-11 19 -35 62 -53 95 -155 283 -413 663 -644 950 -44 55 -85 105 -91 111 -5 6
-35 39 -65 74 -143 165 -355 380 -535 545 -54 50 -103 95 -109 100 -24 23
-197 166 -291 241 -138 111 -371 279 -529 381 -72 47 -143 93 -158 104 -15 10
-30 19 -32 19 -3 0 -37 20 -76 45 -39 25 -72 45 -75 45 -2 0 -30 15 -62 34
-326 190 -732 378 -1163 540 -320 121 -831 275 -1075 326 -22 4 -94 19 -160
33 -66 15 -133 29 -150 32 -70 12 -282 48 -302 50 -13 2 -40 6 -60 9 -21 3
-57 8 -80 11 -24 3 -60 7 -80 10 -21 2 -65 7 -98 10 -33 3 -76 8 -95 10 -43 5
-142 12 -280 21 -96 6 -628 13 -633 8z"/>
<path d="M68068 51055 c-2 -1 -50 -6 -108 -10 -58 -3 -118 -8 -135 -9 -39 -4
-168 -15 -270 -22 -118 -8 -175 -13 -220 -19 -22 -2 -67 -7 -100 -10 -33 -3
-71 -8 -85 -10 -29 -4 -169 -24 -220 -30 -19 -3 -46 -7 -60 -10 -14 -2 -43 -7
-65 -10 -22 -3 -76 -12 -120 -21 -44 -8 -89 -17 -100 -18 -11 -2 -90 -18 -175
-36 -85 -18 -162 -33 -170 -35 -53 -11 -454 -113 -555 -142 -262 -73 -747
-228 -1040 -333 -368 -131 -529 -365 -476 -690 6 -36 16 -81 21 -100 6 -19 13
-46 16 -60 3 -13 9 -29 13 -35 4 -5 16 -32 26 -60 31 -85 131 -286 190 -380
285 -453 644 -561 1223 -366 64 21 162 58 217 81 129 54 512 242 639 314 54
31 101 56 105 56 3 0 22 11 41 23 19 13 64 40 100 59 84 46 167 91 260 143 41
23 126 67 189 99 62 31 145 74 185 95 80 43 218 116 351 186 396 209 671 371
780 459 118 96 168 159 238 301 75 151 98 329 51 392 -63 85 -228 156 -439
189 -34 5 -302 13 -307 9z"/>
<path d="M54696 45383 c-2 -2 -1519 -9 -4090 -18 -678 -2 -1001 -7 -1005 -14
-5 -7 -309 -12 -936 -16 -512 -3 -1189 -8 -1505 -10 -316 -2 -948 -7 -1405
-10 -456 -3 -1143 -7 -1525 -10 -382 -3 -1039 -7 -1460 -10 -421 -3 -1096 -7
-1500 -10 -404 -3 -1052 -7 -1440 -10 -678 -4 -2479 -17 -3545 -25 l-51 0 3
-1392 c4 -1843 11 -4171 12 -4180 1 -4 103 -7 229 -8 125 0 421 -3 657 -5
1678 -15 1998 -18 3290 -30 308 -3 819 -7 1135 -10 316 -3 827 -8 1135 -10
308 -3 803 -7 1100 -10 763 -7 1637 -15 2215 -20 458 -4 1031 -9 2270 -20 267
-3 773 -7 1125 -10 352 -3 820 -8 1040 -10 220 -2 510 -4 644 -5 l244 -2 31
34 c17 18 76 83 130 143 90 99 152 168 341 375 33 36 64 70 70 76 5 6 42 46
80 89 39 43 81 90 95 105 14 15 61 67 105 116 44 48 91 100 105 115 14 15 59
64 100 110 41 45 80 87 85 93 6 6 48 54 95 106 47 52 92 101 100 110 8 9 38
41 65 71 43 48 175 193 240 265 11 12 52 57 90 99 39 43 81 90 95 105 14 15
56 61 93 103 37 41 80 88 95 104 49 53 197 216 215 237 20 23 33 37 181 200
54 60 106 116 115 126 9 9 32 34 51 56 37 42 219 243 280 309 141 155 250 275
275 304 17 19 37 41 46 50 9 9 64 70 124 136 59 66 124 138 145 160 20 22 105
117 190 210 85 94 158 175 164 181 6 6 47 51 91 99 44 49 89 99 100 111 11 12
56 61 100 110 44 48 87 95 95 104 8 9 49 54 90 100 41 47 77 87 80 90 8 7 108
116 205 224 44 49 94 104 110 122 17 17 64 69 105 115 41 45 84 93 95 105 11
12 36 39 55 60 104 115 335 370 340 374 3 3 13 15 24 27 l18 22 -972 -2 c-534
-1 -973 -3 -974 -4z"/>
<path d="M57064 44798 c-71 -79 -131 -145 -134 -148 -3 -3 -51 -54 -105 -115
-55 -60 -102 -112 -105 -115 -3 -3 -27 -30 -55 -60 -27 -30 -90 -100 -140
-155 -49 -54 -97 -106 -105 -115 -8 -9 -49 -54 -90 -100 -41 -46 -84 -93 -95
-105 -11 -11 -49 -53 -85 -94 -36 -40 -81 -90 -100 -110 -19 -21 -66 -73 -105
-116 -38 -43 -77 -85 -86 -94 -14 -14 -167 -183 -260 -286 -34 -39 -153 -168
-174 -191 -5 -6 -25 -29 -44 -50 -59 -66 -206 -229 -212 -234 -5 -5 -136 -148
-309 -339 -47 -52 -96 -106 -108 -120 -13 -14 -56 -62 -95 -105 -40 -44 -77
-84 -82 -90 -6 -6 -35 -38 -65 -71 -30 -34 -93 -103 -140 -154 -47 -51 -92
-101 -100 -111 -8 -9 -58 -64 -110 -121 -100 -108 -172 -188 -254 -279 -44
-50 -187 -207 -245 -269 -13 -14 -51 -57 -85 -95 -87 -98 -103 -115 -155 -171
-25 -27 -84 -93 -131 -145 -47 -52 -96 -107 -110 -121 -14 -14 -56 -61 -95
-104 -38 -43 -83 -92 -100 -110 -16 -18 -64 -70 -105 -116 -41 -45 -98 -108
-126 -138 -28 -31 -144 -159 -259 -286 -199 -219 -226 -249 -292 -321 -15 -17
-66 -73 -113 -124 -47 -51 -92 -101 -101 -109 -8 -9 -45 -51 -82 -93 l-66 -77
-1 -288 c-1 -158 -3 -580 -5 -938 -3 -603 -11 -2252 -20 -4120 -3 -691 -14
-2755 -18 -3552 l-2 -291 120 -59 c356 -176 798 -403 1135 -585 70 -38 100
-55 205 -113 22 -12 67 -37 100 -55 33 -18 94 -52 135 -75 41 -23 104 -58 140
-77 194 -106 481 -272 785 -456 132 -79 256 -153 275 -164 19 -11 42 -26 51
-34 8 -8 18 -14 21 -14 3 0 54 -30 114 -66 176 -107 444 -264 514 -302 36 -20
99 -54 140 -77 197 -107 523 -253 772 -344 157 -57 406 -136 493 -156 6 -2 36
-10 67 -19 31 -10 70 -19 85 -22 15 -3 42 -9 58 -14 24 -7 146 -34 260 -56 26
-5 191 -34 230 -40 17 -2 41 -6 55 -9 14 -2 48 -7 75 -10 28 -4 64 -9 80 -11
17 -2 57 -6 90 -9 32 -3 71 -7 85 -9 14 -3 65 -7 114 -11 50 -4 97 -8 106 -10
9 -2 74 -6 145 -10 72 -4 150 -9 175 -11 58 -4 732 -4 825 1 174 8 376 20 515
30 162 12 207 16 250 20 25 3 79 7 120 10 41 3 86 7 100 10 14 2 50 7 80 10
30 3 66 7 80 9 14 2 52 7 85 10 33 4 67 9 75 11 8 2 40 7 70 10 30 3 83 11
118 16 34 5 84 12 110 15 26 3 54 7 62 9 8 2 38 7 65 11 28 3 57 7 65 9 31 6
96 15 135 20 22 3 49 7 60 9 11 2 43 7 70 10 28 4 61 8 75 11 37 7 79 13 135
21 28 3 57 8 65 9 9 2 43 6 75 10 33 4 68 9 79 11 10 2 44 6 75 9 31 3 65 8
76 10 11 2 47 7 80 10 33 3 71 8 85 10 14 2 54 7 90 10 36 3 85 8 110 10 60 6
150 14 230 20 36 3 85 7 110 10 95 10 204 18 395 30 171 11 522 22 736 24 l66
1 -3 4403 c-1 2421 -3 4706 -3 5079 l-1 676 -29 19 c-16 10 -58 43 -93 73 -68
58 -503 492 -658 656 -494 522 -488 515 -770 839 -106 121 -221 252 -255 290
-34 39 -77 88 -96 110 -19 22 -48 56 -65 75 -17 19 -150 170 -294 335 -144
165 -274 314 -289 330 -14 17 -60 68 -100 115 -41 47 -87 99 -102 115 -15 17
-65 73 -110 125 -45 52 -96 111 -113 130 -53 60 -109 124 -166 190 -30 35 -62
71 -70 79 -9 9 -45 50 -80 91 -36 41 -67 77 -70 80 -3 3 -34 39 -70 80 -36 41
-67 77 -70 80 -9 8 -210 239 -270 309 -30 35 -66 76 -80 90 -14 15 -36 40 -50
56 -26 31 -430 493 -486 555 -17 19 -80 91 -140 160 -60 69 -111 127 -114 130
-3 3 -34 39 -70 80 -36 41 -67 77 -70 80 -3 3 -48 54 -100 115 -52 60 -114
130 -136 155 -23 25 -88 99 -145 165 -57 66 -106 122 -109 125 -3 3 -68 77
-145 165 -77 88 -142 162 -145 165 -3 3 -52 59 -110 125 -57 66 -109 125 -115
131 -5 6 -35 40 -65 75 -30 35 -77 88 -104 119 -64 72 -71 81 -275 315 -96
110 -184 209 -195 221 -12 11 -50 55 -86 97 -35 43 -67 77 -71 77 -4 0 -64
-64 -135 -142z"/>
<path d="M5400 44135 c-224 -44 -430 -203 -523 -402 -35 -75 -30 -72 -92 -58
-136 32 -330 36 -509 10 -220 -32 -473 -162 -641 -329 -207 -206 -352 -504
-414 -851 -30 -169 -33 -208 -36 -535 -5 -423 -15 -728 -28 -820 -3 -19 -8
-62 -12 -95 -4 -33 -9 -67 -10 -75 -1 -8 -6 -35 -10 -60 -3 -25 -8 -56 -11
-70 -13 -81 -66 -239 -115 -346 -57 -122 -170 -240 -299 -312 -49 -28 -171
-78 -210 -87 -46 -11 -135 -36 -138 -40 -12 -12 186 -72 266 -81 128 -15 299
-3 349 24 10 6 23 10 28 11 18 1 99 34 145 59 121 66 244 177 339 306 41 55
151 232 151 242 0 3 13 33 28 67 56 122 124 326 138 416 3 19 9 44 14 55 4 12
8 24 8 29 1 7 11 65 19 102 2 11 6 36 9 55 2 19 7 46 9 60 5 28 11 83 20 185
3 39 8 88 10 110 3 22 7 166 11 320 7 335 7 335 34 510 31 198 114 386 229
524 57 67 172 152 280 207 118 59 365 139 359 116 -1 -4 1 -36 6 -70 31 -261
207 -497 446 -597 35 -15 72 -29 82 -31 10 -2 28 -7 41 -10 12 -3 45 -9 72
-13 45 -8 41 -9 -42 -10 l-93 -1 0 -305 0 -305 -469 0 -469 0 0 -1435 c0 -789
3 -1436 7 -1436 3 -1 96 -3 206 -4 110 -1 202 -3 205 -4 3 0 5 -1052 5 -2336
0 -1733 3 -2334 11 -2331 6 2 204 134 440 292 236 159 542 364 679 456 138 92
257 172 265 178 8 6 47 32 85 58 l70 47 -2 125 c0 69 -4 343 -7 610 -4 267 -9
634 -11 815 -3 182 -7 485 -10 675 -18 1291 -18 1316 -16 1385 l1 30 228 0
227 0 3 523 2 522 493 -5 c270 -2 510 -7 532 -10 122 -19 243 -123 315 -270
52 -110 100 -293 104 -404 l1 -26 538 -3 538 -2 -5 137 c-3 76 -8 158 -11 183
-9 72 -24 183 -30 210 -2 14 -10 50 -16 80 -55 278 -203 591 -371 784 -187
216 -433 369 -716 445 -40 11 -75 20 -77 20 -3 1 -295 1 -650 1 l-645 0 0 345
0 345 -435 0 -435 0 0 305 0 305 -152 1 -153 1 80 13 c263 43 492 230 580 475
56 155 59 343 7 505 -15 48 -72 157 -105 200 -48 63 -135 144 -199 186 -63 40
-188 93 -248 104 -70 12 -236 13 -300 0z"/>
<path d="M65035 42505 c-219 -58 -396 -205 -515 -428 -42 -78 -95 -221 -104
-281 -4 -21 -8 -41 -11 -45 -5 -9 -17 -146 -19 -219 -8 -258 89 -536 248 -709
83 -91 171 -149 419 -282 42 -22 112 -60 155 -83 94 -50 485 -245 590 -294 78
-37 136 -63 240 -110 415 -188 951 -391 1423 -539 249 -78 626 -183 688 -191
25 -3 48 -7 51 -9 3 -2 50 -6 105 -10 55 -4 103 -9 107 -11 9 -6 57 16 98 45
234 165 285 506 118 776 -29 46 -114 136 -199 210 -19 16 -72 64 -119 105 -47
42 -100 89 -119 106 -19 16 -39 34 -45 39 -39 37 -382 327 -481 409 -66 54
-131 107 -145 119 -141 119 -572 445 -792 599 -253 178 -763 508 -785 508 -3
0 -17 8 -31 18 -15 11 -56 35 -92 55 -36 19 -99 54 -140 77 -279 155 -459 195
-645 145z"/>
<path d="M17199 42516 c-2 -2 -29 -7 -59 -10 -140 -17 -473 -106 -642 -172
-391 -153 -649 -352 -769 -594 -72 -146 -93 -340 -54 -507 4 -19 -15 -12 -152
57 -87 43 -205 97 -263 120 -58 23 -118 48 -135 55 -147 63 -482 145 -665 163
-99 9 -377 9 -465 -1 -177 -20 -421 -91 -596 -175 -79 -39 -268 -147 -279
-161 -3 -4 -17 -14 -32 -24 -57 -36 -226 -178 -290 -243 -403 -412 -509 -961
-285 -1471 19 -43 55 -112 80 -155 l45 -76 -64 -32 c-154 -76 -255 -258 -298
-540 -14 -93 -15 -419 -2 -497 3 -18 8 -45 10 -60 39 -276 119 -473 269 -669
l40 -51 151 60 c436 172 936 353 1221 442 156 49 709 208 765 220 8 2 125 31
260 64 135 33 260 63 279 66 19 3 37 8 41 10 4 2 22 7 41 10 19 3 72 15 119
25 47 10 101 22 120 25 19 3 87 17 150 30 133 27 260 51 310 59 19 3 45 8 56
10 12 2 39 7 60 10 22 4 75 13 119 21 44 8 98 17 120 20 23 3 50 7 62 9 12 3
43 8 70 12 26 3 56 8 67 10 10 2 44 6 75 10 31 3 65 8 76 10 11 2 49 7 83 10
35 3 71 7 80 9 10 1 49 6 87 10 39 4 77 9 86 10 8 2 55 6 105 10 49 3 96 8
104 10 14 4 45 7 210 20 30 2 75 7 100 9 25 3 86 8 135 11 50 3 113 8 140 10
46 4 91 6 330 20 192 11 270 15 435 21 293 10 518 13 903 14 l368 1 11 27
c139 348 310 933 354 1206 3 21 8 48 10 60 15 76 31 174 40 241 3 28 8 58 10
68 2 10 8 64 14 120 6 56 13 113 15 127 5 34 17 191 30 410 4 62 8 497 6 590
-1 43 -4 46 -54 78 -119 75 -341 172 -428 187 -18 3 -35 7 -38 9 -13 8 -161
19 -251 19 -277 0 -638 -65 -921 -165 l-94 -34 -41 41 c-23 22 -54 65 -69 95
-167 332 -543 588 -975 665 -42 8 -334 17 -341 11z"/>
<path d="M36254 36710 c3 -1240 5 -2340 6 -2445 l0 -190 158 -59 c86 -32 171
-65 187 -72 150 -65 1124 -378 1269 -408 11 -3 64 -17 116 -31 87 -24 347 -91
395 -102 11 -2 25 -5 30 -7 82 -23 465 -111 530 -121 11 -2 40 -8 65 -14 25
-5 59 -12 75 -15 17 -3 39 -8 50 -10 23 -4 190 -36 220 -42 11 -1 34 -6 50 -9
17 -3 45 -8 64 -11 18 -3 43 -8 55 -10 11 -2 64 -11 116 -19 52 -9 107 -18
123 -20 61 -11 86 -14 167 -25 47 -6 96 -13 110 -15 14 -2 50 -7 80 -11 30 -4
64 -8 75 -9 11 -2 43 -6 70 -10 28 -3 61 -8 75 -10 14 -2 63 -9 110 -15 47 -6
96 -13 110 -15 14 -2 57 -6 95 -10 39 -3 84 -8 100 -10 17 -2 62 -7 100 -10
70 -6 100 -9 208 -20 32 -4 79 -8 105 -10 26 -2 97 -9 157 -15 150 -16 159
-17 245 -25 41 -3 86 -8 100 -10 14 -2 59 -7 100 -11 41 -3 86 -8 100 -9 14
-2 57 -6 95 -9 39 -4 84 -9 100 -11 17 -2 80 -9 140 -15 161 -16 268 -27 430
-45 22 -3 63 -7 90 -10 108 -11 151 -16 175 -20 14 -2 54 -6 90 -10 36 -3 72
-8 80 -10 8 -2 46 -6 83 -10 37 -3 78 -8 90 -11 12 -2 47 -6 77 -9 30 -3 66
-7 80 -10 14 -2 50 -7 80 -10 30 -4 66 -9 80 -11 14 -2 43 -5 65 -8 22 -3 54
-7 70 -10 17 -2 53 -7 80 -11 28 -3 75 -10 105 -15 30 -5 80 -12 110 -15 30
-3 62 -8 70 -10 13 -4 112 -20 195 -31 30 -4 370 -62 409 -70 42 -8 153 -28
211 -38 14 -3 33 -7 43 -10 9 -3 33 -7 52 -10 216 -32 885 -197 1285 -317 190
-57 806 -267 1010 -344 127 -48 257 -97 290 -110 269 -101 663 -255 720 -280
17 -7 109 -45 205 -83 220 -88 346 -139 388 -158 17 -8 81 -35 140 -59 193
-78 900 -382 1122 -482 30 -14 93 -42 140 -63 47 -21 117 -52 155 -70 39 -18
93 -42 120 -55 75 -34 151 -69 358 -165 172 -81 187 -86 187 -67 1 25 6 1057
15 2772 6 1254 13 2736 20 4045 8 1524 8 1791 1 1797 -3 4 -147 8 -319 9 -434
3 -1659 14 -2222 19 -258 3 -738 7 -1065 10 -1241 11 -1722 15 -2275 20 -313
3 -829 7 -1145 10 -316 3 -818 7 -1115 10 -620 6 -1528 14 -2280 20 -593 5
-1528 13 -2230 20 -264 2 -797 7 -1185 11 -388 3 -781 6 -873 7 l-168 2 5
-2255z"/>
<path d="M8570 38802 c-47 -86 -102 -185 -122 -222 -92 -164 -178 -334 -213
-425 -29 -72 -72 -212 -80 -255 -3 -14 -9 -47 -14 -75 -13 -70 -11 -254 4
-312 46 -174 138 -308 275 -397 103 -68 168 -89 281 -90 92 0 100 1 170 37
102 51 163 111 235 232 102 170 140 379 111 600 -36 265 -200 605 -453 936
-115 150 -95 152 -194 -29z"/>
<path d="M19387 38124 c-2 -2 -93 -6 -203 -9 -217 -6 -321 -10 -519 -21 -71
-4 -150 -8 -175 -9 -130 -7 -260 -16 -300 -20 -25 -2 -88 -7 -140 -10 -52 -4
-108 -8 -125 -10 -16 -1 -64 -6 -105 -9 -73 -7 -116 -11 -230 -21 -30 -3 -80
-7 -110 -10 -30 -3 -70 -7 -90 -9 -19 -3 -64 -8 -100 -12 -36 -3 -78 -8 -94
-10 -16 -2 -57 -6 -90 -9 -34 -3 -72 -8 -86 -10 -14 -2 -50 -7 -80 -10 -30 -3
-66 -8 -80 -10 -14 -2 -50 -7 -80 -10 -30 -3 -66 -8 -80 -10 -14 -2 -49 -7
-79 -10 -30 -4 -61 -8 -70 -10 -15 -3 -73 -11 -144 -20 -43 -6 -93 -13 -212
-30 -60 -9 -126 -18 -145 -21 -19 -3 -60 -9 -90 -14 -30 -5 -71 -12 -90 -15
-19 -3 -46 -7 -60 -10 -34 -6 -77 -13 -125 -20 -22 -3 -51 -8 -65 -11 -46 -8
-65 -12 -140 -24 -87 -14 -96 -15 -172 -30 -31 -6 -70 -13 -85 -15 -15 -2 -41
-7 -58 -10 -16 -3 -102 -19 -190 -36 -134 -25 -237 -46 -326 -64 -9 -2 -32 -6
-50 -9 -19 -3 -77 -15 -129 -27 -52 -11 -108 -23 -125 -25 -16 -3 -37 -7 -45
-10 -8 -3 -76 -18 -150 -34 -215 -46 -695 -164 -1019 -251 -163 -44 -305 -82
-316 -84 -11 -3 -92 -25 -180 -50 -88 -26 -167 -48 -176 -50 -23 -5 -412 -119
-529 -154 -375 -115 -583 -182 -940 -303 -146 -49 -285 -96 -310 -103 -42 -13
-145 -49 -395 -140 -55 -20 -108 -38 -118 -40 -9 -2 -22 -7 -27 -10 -6 -4 -86
-33 -178 -65 -92 -32 -219 -78 -282 -102 -63 -25 -232 -89 -375 -143 -514
-194 -861 -334 -1135 -457 -125 -57 -512 -250 -535 -267 -5 -5 -50 -30 -100
-56 -49 -26 -119 -64 -155 -85 -36 -20 -99 -55 -140 -77 -41 -23 -120 -67
-175 -98 -55 -32 -115 -66 -133 -76 -133 -76 -191 -110 -372 -216 -113 -66
-369 -219 -570 -339 -201 -120 -374 -224 -385 -230 -50 -28 -525 -323 -660
-409 -77 -49 -423 -268 -451 -285 -97 -59 -713 -456 -1119 -721 -221 -145
-372 -242 -392 -254 -9 -5 -22 -14 -27 -18 -6 -4 -211 -142 -456 -305 -245
-164 -497 -333 -560 -377 -63 -43 -153 -105 -200 -137 -47 -32 -92 -63 -100
-68 -8 -6 -52 -36 -98 -68 -45 -31 -145 -100 -222 -152 -78 -52 -189 -129
-248 -171 -59 -41 -162 -113 -230 -158 -67 -46 -126 -89 -129 -95 -5 -8 -3 -8
8 0 8 6 148 79 312 163 308 157 542 276 852 436 99 51 279 143 400 205 121 62
292 150 380 195 88 45 284 146 435 223 151 78 309 159 350 180 385 203 2518
1276 2855 1437 61 29 171 82 245 117 246 119 374 180 445 213 39 18 115 54
170 80 55 26 125 58 155 72 30 14 88 41 128 59 41 19 75 34 76 34 2 0 39 17
82 37 43 20 81 38 84 38 8 2 41 17 230 100 228 100 340 147 480 200 126 48
309 115 325 119 6 2 17 6 25 9 8 3 67 22 130 42 63 20 124 41 135 46 28 12
866 272 915 284 8 2 62 17 120 35 116 35 347 102 425 124 28 8 91 25 140 40
50 14 142 40 205 57 406 109 499 134 620 164 74 19 152 39 174 45 21 6 46 13
55 15 10 2 102 24 207 50 104 26 200 49 213 51 20 4 89 21 161 39 23 5 242 55
265 60 11 2 72 15 135 30 118 27 310 69 390 85 87 18 95 20 120 25 14 3 34 7
45 9 11 3 40 9 65 15 25 5 61 13 80 16 19 3 42 8 50 10 8 2 31 7 50 10 19 3
69 13 110 21 41 9 86 18 100 20 14 2 36 7 50 10 14 3 36 8 50 10 14 3 48 9 76
15 28 5 64 12 80 15 16 2 76 13 134 24 58 10 121 22 140 25 19 3 69 12 110 20
41 8 91 17 110 20 37 6 92 15 125 21 30 6 265 44 305 50 19 3 76 11 125 19
130 20 154 23 210 30 28 4 61 8 75 10 14 2 48 7 75 10 28 3 75 10 105 15 30 5
80 11 111 15 31 3 65 7 75 9 11 2 50 7 87 11 37 3 76 8 85 10 9 1 46 6 82 10
36 3 76 8 90 10 55 8 118 15 183 20 37 4 77 8 87 10 10 2 54 6 97 10 43 3 89
8 103 10 14 2 59 7 100 10 41 4 91 8 110 10 48 5 153 15 226 20 33 2 89 7 125
10 107 8 200 15 284 20 44 3 103 7 130 10 93 8 328 18 800 31 506 15 1800 8
2100 -11 39 -3 113 -7 165 -10 52 -2 124 -7 160 -9 36 -3 101 -8 145 -11 174
-12 439 -34 485 -40 14 -2 59 -7 100 -10 127 -11 240 -23 290 -30 19 -3 56 -7
81 -10 50 -4 207 -23 254 -30 17 -2 53 -7 80 -10 28 -4 61 -8 75 -11 14 -2 50
-6 80 -10 30 -3 64 -8 75 -10 11 -2 40 -6 65 -9 25 -3 56 -8 70 -10 14 -3 43
-7 65 -11 22 -3 54 -8 70 -11 17 -3 44 -6 60 -8 35 -4 71 -10 180 -30 44 -8
96 -17 115 -19 20 -3 47 -7 60 -10 14 -3 41 -8 60 -11 19 -2 46 -7 60 -10 14
-3 52 -10 85 -15 33 -6 92 -17 130 -25 39 -8 86 -17 105 -20 19 -3 53 -10 75
-15 22 -5 54 -11 70 -14 35 -6 140 -29 380 -81 94 -20 177 -38 185 -40 8 -2
74 -18 145 -35 72 -18 138 -34 148 -36 24 -6 32 -8 227 -58 160 -41 594 -164
765 -216 39 -11 77 -23 85 -25 23 -5 558 -181 715 -235 135 -46 354 -126 480
-175 33 -13 148 -57 255 -98 281 -109 439 -175 698 -293 29 -13 54 -24 57 -24
2 0 56 -25 120 -55 65 -30 119 -55 120 -55 2 0 55 -24 117 -53 62 -30 160 -76
218 -102 120 -56 901 -448 1095 -550 72 -37 173 -90 225 -118 122 -63 249
-131 325 -172 33 -18 105 -56 160 -85 55 -29 132 -69 170 -90 39 -21 106 -57
150 -80 44 -24 112 -60 150 -80 39 -21 111 -59 160 -85 173 -92 240 -128 300
-160 33 -18 132 -70 220 -115 88 -46 165 -86 170 -90 14 -10 971 -490 977
-490 5 0 56 -24 358 -167 52 -25 160 -74 240 -110 80 -35 159 -70 175 -78 60
-27 322 -138 395 -167 41 -17 86 -35 100 -41 14 -6 27 -11 30 -12 7 -1 320
-124 345 -134 183 -79 1183 -406 1455 -476 8 -2 65 -18 125 -35 120 -33 136
-38 163 -44 9 -3 118 -30 242 -61 124 -31 232 -58 240 -60 8 -2 44 -10 80 -18
86 -20 532 -115 567 -122 16 -2 39 -7 53 -10 26 -5 60 -11 108 -20 15 -3 38
-8 52 -11 13 -3 40 -7 60 -10 19 -2 42 -6 50 -9 8 -2 31 -7 50 -10 19 -3 60
-10 90 -15 60 -10 99 -17 145 -24 100 -15 122 -19 138 -22 20 -3 288 -42 352
-50 22 -3 51 -7 65 -9 59 -8 108 -15 145 -19 22 -3 76 -10 120 -15 44 -5 103
-12 130 -15 103 -11 241 -26 275 -31 37 -5 109 -12 200 -20 30 -3 73 -8 95
-10 22 -3 67 -7 100 -10 56 -4 98 -8 215 -20 66 -6 178 -16 237 -20 28 -2 73
-6 100 -9 26 -3 84 -8 128 -11 44 -4 96 -8 115 -10 19 -2 76 -7 125 -10 50 -4
106 -8 125 -10 19 -2 76 -7 125 -10 50 -3 108 -8 130 -10 22 -3 74 -7 115 -10
41 -3 95 -8 120 -10 25 -2 81 -7 125 -10 44 -4 96 -8 115 -10 19 -2 76 -7 125
-10 50 -3 101 -8 115 -10 22 -4 70 -8 205 -20 102 -8 193 -17 215 -20 14 -2
54 -6 90 -10 36 -3 81 -8 100 -10 19 -3 60 -7 90 -10 30 -3 71 -7 90 -10 19
-2 60 -7 90 -10 30 -4 66 -8 80 -10 14 -2 84 -11 155 -20 72 -9 155 -20 185
-25 30 -6 75 -12 100 -15 25 -3 56 -7 70 -10 14 -3 43 -7 65 -10 22 -2 50 -7
61 -9 30 -6 94 -17 124 -21 78 -11 335 -60 477 -90 61 -13 123 -26 137 -29 35
-6 137 -30 336 -78 91 -22 173 -41 183 -43 10 -2 27 -7 37 -10 10 -3 27 -8 37
-10 10 -2 70 -18 133 -35 63 -17 138 -38 165 -45 28 -7 138 -39 245 -71 107
-31 215 -63 240 -70 25 -7 124 -38 220 -69 96 -31 182 -58 190 -60 63 -16 745
-253 1035 -360 116 -43 226 -84 246 -91 291 -105 1395 -524 1474 -559 17 -7
78 -32 138 -54 59 -23 133 -52 165 -66 31 -13 131 -54 222 -91 358 -145 784
-328 1110 -477 30 -13 78 -35 105 -47 69 -31 411 -189 520 -240 50 -23 117
-55 150 -70 33 -15 103 -48 155 -73 52 -25 129 -61 170 -80 41 -19 113 -53
160 -75 47 -22 126 -59 175 -82 50 -23 128 -60 175 -82 79 -37 270 -126 400
-185 30 -14 89 -41 130 -60 129 -60 590 -264 700 -310 386 -162 990 -402 1080
-428 29 -8 345 -122 375 -135 46 -20 524 -174 699 -225 249 -73 556 -151 766
-195 30 -6 82 -18 115 -25 33 -8 71 -16 85 -19 14 -2 84 -16 155 -31 158 -33
150 -31 205 -40 25 -4 54 -9 65 -11 10 -2 37 -6 60 -9 22 -4 52 -8 68 -11 55
-9 83 -13 137 -19 30 -4 62 -9 70 -10 58 -10 315 -38 465 -50 44 -4 96 -8 115
-10 19 -2 82 -7 140 -10 58 -4 125 -8 150 -11 233 -21 964 -21 1180 0 19 2 87
7 150 10 63 4 131 9 150 11 19 2 71 7 115 10 44 3 94 8 110 10 17 2 57 7 90
10 33 3 74 8 90 10 17 2 55 7 86 10 31 3 65 7 75 9 11 2 46 7 79 10 57 7 100
13 155 21 33 5 144 22 195 30 64 9 274 46 340 59 11 2 70 14 130 25 61 12 126
26 145 31 19 5 49 11 65 13 17 3 62 13 100 22 39 9 81 19 95 21 48 9 416 104
595 154 262 73 1415 379 1486 395 10 2 77 19 150 39 214 56 373 97 389 101 8
2 107 27 220 55 113 28 213 53 224 56 39 7 26 12 -26 9 -29 -2 -111 -6 -183
-9 -71 -4 -159 -8 -195 -11 -67 -4 -201 -11 -395 -20 -112 -5 -207 -11 -350
-20 -44 -3 -114 -8 -155 -11 -100 -6 -194 -13 -255 -19 -27 -2 -86 -7 -130
-10 -44 -4 -98 -8 -120 -10 -22 -3 -74 -7 -115 -10 -41 -3 -91 -8 -110 -10
-19 -3 -65 -7 -101 -10 -37 -2 -86 -6 -110 -9 -24 -3 -69 -8 -99 -10 -140 -14
-301 -30 -390 -41 -19 -2 -60 -7 -90 -10 -30 -3 -64 -7 -76 -9 -12 -2 -45 -7
-74 -11 -29 -4 -60 -8 -69 -10 -9 -1 -45 -6 -81 -10 -36 -4 -73 -9 -84 -11
-10 -2 -44 -6 -75 -9 -31 -3 -67 -8 -81 -11 -14 -2 -50 -6 -80 -9 -30 -2 -77
-7 -105 -10 -115 -14 -235 -26 -305 -30 -25 -2 -76 -6 -115 -9 -288 -25 -436
-30 -925 -30 -424 0 -653 6 -760 19 -19 2 -75 7 -125 10 -49 4 -103 8 -120 10
-16 1 -61 6 -100 10 -38 3 -77 8 -85 10 -8 3 -42 7 -75 10 -33 4 -67 8 -75 10
-8 3 -37 7 -65 10 -27 3 -57 8 -65 10 -8 2 -37 7 -65 10 -27 3 -61 7 -75 10
-13 3 -42 7 -65 10 -46 7 -51 8 -240 40 -77 14 -153 27 -170 30 -149 29 -236
47 -265 55 -19 5 -48 11 -65 13 -33 5 -348 84 -460 116 -173 48 -293 83 -335
96 -25 8 -110 35 -190 61 -461 147 -1080 397 -1645 664 -60 29 -139 65 -175
82 -86 40 -835 415 -959 480 -53 28 -143 75 -201 106 -213 111 -462 241 -595
312 -38 20 -115 61 -170 90 -55 29 -131 70 -170 90 -38 21 -119 63 -180 95
-60 32 -137 72 -170 90 -33 18 -141 74 -240 126 -99 51 -256 133 -350 181
-186 97 -1013 509 -1165 581 -89 42 -144 67 -280 129 -635 289 -740 336 -830
376 -121 53 -148 65 -185 82 -78 36 -316 140 -320 140 -3 0 -30 12 -62 26 -32
14 -67 30 -78 35 -11 5 -60 26 -110 47 -171 74 -551 231 -795 327 -135 54
-264 106 -287 116 -24 10 -46 19 -51 19 -5 0 -53 18 -108 39 -159 63 -664 246
-704 256 -8 2 -87 28 -175 58 -315 108 -960 306 -1115 342 -8 2 -46 13 -85 24
-58 16 -399 104 -454 116 -103 24 -375 85 -393 89 -373 75 -571 113 -698 132
-56 8 -79 12 -182 29 -54 8 -140 22 -190 30 -51 8 -113 17 -137 20 -23 3 -55
7 -70 10 -14 2 -46 7 -71 10 -25 3 -72 10 -105 15 -33 5 -85 11 -115 15 -30 3
-66 8 -80 10 -14 2 -50 7 -80 10 -30 4 -66 8 -80 10 -28 4 -128 15 -175 20
-16 2 -91 11 -165 19 -74 9 -157 19 -185 22 -27 3 -61 7 -75 9 -35 5 -120 14
-285 31 -33 3 -73 7 -90 10 -16 2 -59 6 -95 9 -36 4 -76 8 -90 10 -14 2 -61 7
-105 10 -44 4 -88 9 -98 11 -11 2 -58 6 -105 9 -48 4 -94 8 -102 10 -8 2 -53
7 -100 10 -47 3 -92 8 -100 10 -8 2 -51 7 -95 10 -44 3 -93 8 -110 10 -16 2
-59 6 -95 10 -36 3 -81 8 -100 10 -19 2 -62 7 -95 10 -60 6 -103 11 -172 20
-21 2 -63 7 -93 10 -30 2 -64 6 -75 9 -11 2 -56 7 -100 11 -44 4 -82 8 -85 10
-3 1 -36 6 -75 9 -38 4 -77 9 -85 11 -8 2 -35 6 -60 9 -25 3 -79 10 -120 16
-41 5 -93 13 -115 16 -22 2 -65 9 -95 14 -30 5 -98 17 -150 25 -52 8 -106 17
-120 20 -14 2 -65 11 -115 19 -49 9 -101 18 -115 21 -14 3 -52 10 -85 15 -33
6 -80 15 -105 20 -25 5 -56 12 -70 14 -14 2 -36 7 -50 10 -14 3 -36 8 -50 10
-46 8 -183 37 -360 78 -96 21 -184 41 -195 44 -18 4 -387 98 -560 144 -753
196 -1857 608 -2623 977 -342 164 -434 209 -687 333 -510 249 -844 418 -1200
605 -55 29 -158 83 -230 120 -71 37 -170 89 -220 115 -49 26 -178 92 -285 148
-107 55 -278 144 -380 196 -216 112 -995 501 -1220 609 -487 234 -1328 606
-1600 707 -63 23 -131 49 -150 56 -689 256 -1119 401 -1640 552 -185 54 -245
70 -267 73 -5 1 -19 5 -32 10 -19 8 -422 111 -481 124 -8 2 -62 15 -120 29
-58 14 -121 28 -140 31 -19 3 -51 10 -70 15 -80 21 -447 98 -540 114 -14 2
-63 11 -110 20 -47 8 -98 18 -115 21 -47 8 -317 55 -345 60 -14 2 -68 10 -120
19 -52 8 -113 18 -135 21 -39 5 -68 10 -130 20 -16 3 -50 7 -75 10 -25 4 -92
13 -150 21 -104 14 -151 20 -222 29 -21 3 -55 7 -75 10 -51 7 -97 12 -168 20
-33 3 -73 8 -90 10 -16 2 -61 7 -100 10 -38 4 -78 9 -87 10 -9 2 -52 7 -95 10
-43 4 -89 8 -103 10 -14 2 -59 6 -100 10 -41 3 -93 8 -115 10 -45 4 -144 13
-237 20 -35 2 -92 7 -128 10 -78 6 -181 13 -310 20 -52 3 -126 7 -165 10 -78
5 -255 13 -475 21 -162 6 -1258 13 -1263 8z"/>
<path d="M17577 35104 c-1 -1 -123 -5 -272 -9 -148 -3 -301 -8 -340 -10 -187
-9 -325 -16 -375 -20 -30 -2 -93 -7 -140 -10 -94 -6 -181 -13 -250 -20 -25 -2
-76 -6 -115 -10 -38 -3 -88 -8 -110 -10 -22 -3 -65 -7 -96 -10 -30 -2 -75 -6
-100 -9 -24 -3 -64 -8 -89 -11 -120 -13 -308 -36 -330 -40 -14 -2 -47 -7 -75
-10 -51 -5 -110 -13 -155 -20 -14 -2 -45 -6 -70 -10 -25 -3 -56 -8 -70 -10
-14 -2 -45 -7 -70 -10 -40 -6 -478 -77 -555 -90 -164 -30 -227 -41 -405 -76
-113 -22 -245 -48 -295 -59 -49 -10 -155 -33 -235 -50 -80 -18 -152 -33 -160
-35 -8 -2 -54 -12 -102 -24 -48 -11 -98 -23 -110 -25 -13 -2 -79 -18 -148 -36
-69 -17 -134 -33 -145 -35 -35 -5 -442 -112 -685 -180 -129 -36 -242 -67 -250
-69 -23 -6 -353 -104 -475 -141 -323 -98 -914 -293 -1200 -395 -357 -128 -455
-164 -735 -270 -207 -79 -590 -230 -645 -255 -16 -7 -97 -41 -180 -75 -156
-64 -180 -74 -255 -108 -25 -11 -90 -39 -145 -62 -55 -23 -128 -55 -163 -71
-35 -16 -65 -29 -67 -29 -3 0 -35 -14 -72 -31 -38 -17 -131 -60 -208 -94 -199
-90 -456 -209 -740 -345 -120 -57 -970 -483 -1102 -552 -305 -159 -439 -230
-493 -260 -41 -23 -73 -40 -260 -141 -36 -19 -85 -46 -110 -60 -25 -14 -169
-94 -320 -178 -151 -83 -348 -194 -438 -246 -90 -51 -167 -93 -172 -93 -6 0
-10 -4 -10 -10 0 -5 -5 -10 -10 -10 -6 0 -45 -21 -88 -46 -166 -99 -189 -112
-247 -144 -33 -18 -67 -39 -76 -46 -8 -8 -19 -14 -23 -14 -3 0 -23 -11 -44
-24 -37 -23 -520 -311 -557 -332 -11 -6 -112 -67 -225 -136 -113 -68 -241
-146 -285 -173 -44 -27 -121 -75 -172 -107 -51 -32 -95 -58 -98 -58 -3 0 -11
-5 -18 -10 -7 -6 -230 -147 -497 -314 -464 -290 -821 -516 -1218 -773 -100
-65 -233 -150 -295 -190 -62 -40 -129 -84 -149 -98 -57 -39 -51 -65 26 -124
93 -70 302 -167 588 -271 178 -66 204 -73 303 -85 28 -4 64 -8 80 -10 17 -3
167 -7 335 -10 413 -7 517 -13 685 -40 17 -3 23 -2 15 1 -8 4 -33 14 -55 24
-22 9 -60 25 -85 35 -65 27 -72 38 -15 21 59 -18 259 -59 365 -76 41 -6 86
-13 100 -16 51 -8 194 -25 345 -40 108 -11 128 -12 310 -19 259 -11 831 -5
951 10 16 2 83 6 149 10 66 4 131 8 145 10 14 2 63 7 110 10 47 3 96 8 110 10
14 2 61 6 105 10 44 3 91 8 105 10 14 2 59 7 100 10 41 4 82 8 90 10 8 1 44 6
80 9 36 4 81 9 100 11 84 11 120 15 166 19 27 3 65 7 84 10 19 3 55 7 80 10
25 3 104 13 175 21 72 9 146 18 165 20 19 2 56 7 81 10 25 4 63 8 85 10 21 2
59 6 84 9 25 3 65 8 90 11 25 2 63 7 85 9 91 11 161 19 185 21 47 4 175 17
190 20 8 1 56 6 105 9 50 4 106 9 125 11 19 2 76 7 125 10 50 3 115 7 145 10
435 35 2257 51 3610 31 1324 -20 2008 -26 3655 -31 776 -3 1555 -7 1732 -9
612 -10 1118 -19 1588 -31 498 -12 619 -15 750 -20 294 -10 455 -16 590 -20
143 -4 339 -11 546 -20 64 -3 177 -7 250 -10 74 -3 181 -7 239 -10 58 -3 152
-7 210 -10 149 -7 322 -15 415 -20 325 -16 462 -24 580 -31 55 -3 134 -7 175
-9 41 -2 116 -7 165 -10 50 -3 128 -8 175 -10 47 -3 117 -8 155 -10 39 -3 104
-7 145 -10 41 -3 113 -7 160 -10 47 -3 121 -8 165 -10 44 -3 114 -7 155 -10
41 -3 104 -8 140 -10 36 -3 108 -7 160 -10 53 -2 125 -7 160 -9 91 -7 221 -16
315 -21 44 -2 114 -7 155 -10 73 -5 105 -7 335 -20 61 -4 126 -8 145 -10 19
-2 91 -6 160 -10 69 -4 148 -8 175 -10 50 -4 145 -10 325 -20 98 -6 186 -11
314 -20 82 -6 192 -12 336 -20 52 -2 127 -7 165 -10 39 -2 113 -7 165 -10 52
-3 129 -7 170 -10 127 -8 241 -15 335 -20 50 -3 126 -7 170 -10 114 -7 248
-15 330 -20 88 -5 260 -15 345 -20 83 -5 240 -14 355 -20 50 -3 124 -7 165
-10 149 -9 266 -16 340 -20 76 -4 199 -11 345 -20 44 -3 123 -7 175 -10 52 -3
136 -7 185 -11 50 -3 128 -7 175 -9 82 -4 211 -11 355 -20 73 -5 220 -13 340
-20 39 -2 126 -7 195 -10 69 -3 145 -8 170 -10 25 -2 99 -6 165 -10 190 -10
284 -15 375 -20 47 -3 123 -7 170 -10 47 -2 128 -7 180 -10 52 -4 136 -8 185
-10 50 -2 131 -7 180 -10 190 -12 414 -24 715 -39 58 -3 139 -8 180 -10 41 -3
127 -8 190 -11 63 -4 142 -8 175 -10 33 -2 119 -6 190 -10 72 -3 150 -8 175
-10 25 -2 106 -7 180 -10 74 -4 162 -8 195 -10 189 -10 289 -16 360 -20 82 -5
244 -14 370 -20 70 -3 225 -12 365 -20 41 -3 125 -7 185 -10 61 -3 139 -7 175
-9 36 -3 119 -8 185 -11 66 -4 152 -8 190 -10 39 -3 122 -7 185 -10 63 -3 147
-7 185 -10 39 -2 120 -7 180 -10 61 -3 146 -8 190 -10 44 -3 125 -7 180 -10
55 -3 136 -7 180 -10 118 -7 278 -15 380 -20 50 -3 126 -7 170 -10 44 -3 125
-7 180 -10 55 -3 143 -8 195 -10 52 -3 133 -8 180 -10 47 -2 132 -7 190 -11
58 -3 139 -7 180 -9 78 -3 219 -11 355 -20 92 -6 227 -13 365 -20 52 -3 131
-7 175 -10 44 -2 132 -7 195 -10 63 -4 144 -8 180 -11 36 -2 110 -6 165 -9
124 -6 257 -14 355 -20 41 -3 120 -8 175 -10 158 -8 369 -21 470 -30 33 -3 92
-7 130 -10 39 -3 93 -7 120 -10 28 -2 82 -7 120 -10 39 -3 88 -7 110 -10 44
-5 163 -16 210 -20 79 -7 173 -16 200 -20 17 -2 62 -7 100 -10 39 -4 84 -8
100 -10 29 -4 172 -20 280 -31 28 -3 66 -7 85 -9 19 -2 60 -7 90 -10 30 -3 73
-9 95 -12 22 -3 56 -6 75 -8 33 -3 99 -10 180 -20 53 -7 209 -25 265 -31 28
-2 84 -9 125 -14 41 -5 100 -12 130 -15 30 -3 69 -8 85 -10 27 -4 150 -18 260
-30 22 -3 65 -7 95 -10 30 -3 64 -7 75 -9 11 -2 56 -7 100 -11 44 -4 87 -9 95
-10 8 -2 44 -6 80 -9 36 -4 99 -11 140 -16 41 -5 107 -12 145 -15 72 -6 130
-12 200 -20 22 -3 72 -7 110 -10 39 -3 86 -8 105 -11 34 -4 62 -7 215 -19 39
-3 86 -8 105 -10 19 -3 71 -7 115 -10 44 -3 107 -7 140 -9 349 -27 361 -28
850 -52 321 -16 1414 -9 1615 11 19 2 82 6 140 10 58 3 116 8 130 10 22 3 147
14 220 20 14 1 48 5 75 9 28 3 73 8 100 11 28 3 59 7 70 9 11 2 45 7 76 10 31
4 65 8 75 10 11 2 42 7 69 10 28 4 115 18 195 32 80 14 159 27 175 30 17 3 49
9 73 15 23 5 57 12 75 15 17 3 57 11 87 18 l54 12 -89 38 c-157 66 -944 382
-1100 441 -82 31 -159 61 -170 66 -30 13 -452 171 -585 219 -63 22 -122 44
-130 47 -8 3 -17 7 -20 8 -3 1 -12 4 -20 8 -8 3 -91 33 -185 66 -725 255
-1436 487 -2040 666 -100 29 -601 174 -625 180 -8 2 -42 11 -75 20 -33 9 -67
18 -75 20 -8 2 -116 31 -240 65 -124 33 -234 62 -245 65 -11 2 -153 37 -315
78 -505 127 -1181 281 -1450 331 -14 2 -83 16 -155 31 -161 33 -135 28 -355
70 -277 53 -341 64 -385 70 -22 3 -46 8 -53 10 -7 3 -67 14 -135 25 -67 11
-133 22 -147 25 -14 2 -68 11 -120 20 -52 8 -106 17 -119 20 -12 2 -43 7 -68
10 -24 2 -48 7 -51 9 -4 2 -32 7 -62 10 -30 4 -80 11 -110 16 -30 5 -75 12
-100 15 -54 7 -96 14 -130 20 -14 2 -45 7 -70 10 -25 3 -70 10 -100 15 -30 5
-71 11 -90 14 -172 24 -329 48 -350 51 -14 3 -43 7 -65 10 -22 3 -50 7 -62 9
-11 3 -43 8 -70 12 -26 3 -55 8 -63 9 -8 2 -51 8 -95 15 -104 15 -129 19 -195
30 -30 5 -73 11 -95 15 -22 3 -51 7 -65 10 -14 2 -43 7 -65 10 -41 6 -200 31
-405 65 -63 10 -133 21 -155 24 -23 4 -52 9 -65 11 -14 3 -45 8 -70 11 -25 3
-52 7 -61 10 -9 3 -34 7 -55 9 -22 3 -50 7 -64 10 -40 8 -65 13 -106 20 -46 7
-32 4 -294 50 -197 35 -264 47 -340 59 -19 4 -48 9 -65 13 -16 3 -40 7 -52 9
-11 1 -29 4 -40 8 -10 3 -38 8 -63 11 -25 3 -52 8 -60 10 -17 5 -219 44 -265
51 -16 3 -50 9 -75 14 -25 5 -56 12 -70 14 -21 4 -202 39 -265 52 -11 2 -54
11 -95 19 -41 8 -84 16 -95 19 -11 2 -74 16 -140 29 -66 14 -196 42 -290 62
-93 20 -201 43 -240 51 -38 8 -106 24 -150 34 -44 10 -91 21 -105 24 -65 13
-368 86 -690 167 -195 50 -382 97 -415 105 -83 21 -697 191 -770 214 -33 10
-107 33 -165 50 -286 86 -741 232 -965 310 -289 101 -464 163 -615 220 -91 35
-192 73 -225 85 -82 30 -602 239 -656 263 -24 11 -118 51 -209 90 -220 94
-475 205 -541 235 -125 57 -158 71 -229 102 -41 18 -100 44 -130 58 -30 13
-77 35 -105 47 -98 44 -505 229 -557 254 -29 13 -156 71 -283 129 -126 58
-259 119 -295 135 -36 16 -139 64 -230 105 -91 41 -196 89 -235 107 -38 18
-92 42 -120 55 -78 35 -567 255 -600 270 -16 7 -57 26 -90 40 -33 15 -132 58
-220 97 -88 38 -178 78 -200 88 -22 11 -132 58 -245 106 -113 47 -218 92 -235
100 -64 28 -451 186 -636 260 -311 122 -334 131 -534 205 -104 38 -199 74
-210 78 -150 66 -1033 355 -1365 447 -47 13 -116 33 -155 44 -317 91 -1129
282 -1300 305 -11 2 -58 10 -105 19 -47 8 -98 18 -115 21 -16 3 -42 7 -58 10
-48 8 -141 24 -179 29 -35 6 -69 11 -138 21 -22 3 -80 11 -222 30 -18 3 -71 9
-118 15 -47 6 -101 13 -120 16 -19 2 -57 6 -85 9 -55 5 -113 12 -190 20 -193
20 -615 51 -845 60 -262 12 -956 25 -963 19z"/>
<path d="M12119 24516 c-2 -2 -49 -7 -104 -10 -55 -4 -113 -9 -130 -11 -285
-38 -435 -67 -653 -127 -302 -82 -618 -214 -902 -376 -133 -76 -418 -272 -520
-358 -636 -535 -1036 -1071 -1307 -1749 -61 -152 -168 -515 -188 -635 -3 -19
-13 -73 -21 -120 -9 -47 -17 -94 -19 -105 -1 -11 -6 -49 -10 -85 -4 -36 -9
-73 -11 -82 -26 -144 -26 -775 1 -993 1 -11 6 -47 10 -80 17 -146 71 -416 110
-555 9 -30 18 -65 21 -77 22 -107 161 -457 257 -648 144 -289 361 -607 592
-871 84 -96 315 -327 405 -404 41 -36 77 -67 80 -70 18 -20 173 -140 267 -208
301 -216 651 -399 983 -514 111 -39 259 -83 309 -94 14 -3 28 -7 31 -9 4 -2
20 -7 36 -9 16 -3 38 -8 49 -10 103 -23 209 -45 248 -51 27 -3 56 -8 65 -10
10 -1 44 -6 77 -10 33 -4 71 -8 85 -10 14 -2 61 -6 105 -10 44 -3 105 -8 135
-11 71 -6 460 -6 525 0 28 3 88 8 135 11 47 4 96 8 110 10 14 2 50 6 80 10 30
3 93 13 140 21 47 9 99 18 115 20 86 14 371 90 497 133 242 82 503 197 676
300 29 17 55 31 57 31 7 0 228 143 300 194 67 48 235 175 245 186 3 3 49 43
103 90 l99 84 -59 56 c-33 30 -92 84 -133 120 -40 36 -99 88 -129 117 l-56 51
-45 -36 c-25 -20 -50 -41 -56 -47 -66 -60 -269 -213 -354 -265 -30 -19 -57
-37 -60 -40 -5 -6 -73 -46 -155 -93 -124 -69 -362 -179 -485 -225 -126 -47
-350 -115 -412 -126 -15 -3 -31 -7 -36 -10 -5 -3 -31 -8 -58 -12 -27 -3 -52
-8 -55 -10 -7 -4 -48 -11 -104 -18 -22 -3 -50 -8 -62 -10 -12 -3 -53 -8 -90
-11 -37 -4 -76 -9 -87 -11 -110 -20 -635 -20 -769 1 -12 2 -51 6 -87 10 -36 3
-74 8 -85 10 -11 3 -37 7 -58 10 -21 3 -71 12 -110 20 -40 8 -83 16 -97 19
-52 9 -199 49 -305 83 -296 95 -595 239 -854 411 -48 31 -88 59 -91 62 -3 3
-21 17 -40 30 -40 28 -165 126 -195 154 -11 10 -36 30 -55 44 -52 39 -376 367
-446 453 -260 315 -445 623 -584 974 -53 134 -124 356 -145 455 -37 173 -63
315 -71 394 -3 33 -8 69 -10 80 -23 118 -23 692 0 836 2 14 7 50 11 80 10 88
15 120 30 200 8 41 17 86 19 100 28 157 113 426 198 630 270 643 799 1260
1433 1671 39 25 77 49 85 52 8 4 33 18 55 32 70 43 306 160 405 199 278 112
611 199 875 231 28 3 64 7 81 9 210 26 633 26 854 0 90 -10 215 -28 265 -38
149 -29 235 -50 365 -87 94 -28 283 -94 335 -118 11 -5 63 -28 115 -51 242
-106 525 -282 763 -474 62 -50 123 -100 137 -113 14 -13 28 -23 32 -23 5 0 56
44 134 115 6 6 55 51 109 100 157 143 143 124 108 154 -217 187 -261 222 -413
331 -387 277 -847 491 -1308 610 -68 17 -133 33 -145 36 -12 2 -33 6 -47 9
-48 10 -255 44 -295 49 -22 3 -67 8 -100 11 -33 3 -78 8 -100 11 -44 6 -641
15 -646 10z"/>
<path d="M60627 24494 c-1 -1 -83 -4 -182 -8 -99 -4 -193 -8 -210 -10 -16 -2
-61 -6 -100 -10 -38 -4 -81 -9 -95 -11 -14 -2 -43 -6 -65 -10 -23 -3 -52 -7
-65 -10 -13 -3 -42 -7 -65 -11 -108 -15 -395 -89 -553 -143 -692 -232 -1269
-630 -1816 -1251 -43 -49 -183 -226 -217 -274 -96 -137 -117 -170 -182 -276
-145 -236 -278 -523 -365 -785 -35 -104 -46 -139 -68 -225 -20 -75 -73 -317
-78 -352 -3 -23 -8 -52 -10 -63 -13 -73 -32 -242 -43 -390 -13 -176 -6 -651
11 -742 2 -10 7 -54 11 -98 4 -44 8 -82 10 -86 2 -3 6 -23 9 -45 2 -21 14 -91
26 -154 133 -709 465 -1369 970 -1925 153 -169 395 -394 590 -549 45 -35 235
-168 295 -205 39 -24 86 -54 105 -67 135 -87 455 -239 655 -310 145 -52 367
-119 434 -130 14 -3 42 -9 61 -14 67 -17 364 -66 455 -74 279 -27 785 -27 921
-2 10 2 46 7 79 10 74 9 98 12 205 32 47 9 96 18 110 20 80 15 313 79 425 117
551 187 1016 468 1506 909 l86 77 0 1436 c0 789 -3 1436 -6 1436 -3 1 -239 2
-523 3 l-518 1 0 -1220 0 -1220 -90 -65 c-215 -156 -447 -273 -708 -359 -153
-50 -356 -96 -518 -116 -27 -4 -60 -8 -73 -10 -149 -25 -652 -24 -803 0 -13 2
-43 6 -68 9 -25 3 -56 8 -70 11 -14 3 -50 10 -80 15 -88 16 -149 29 -194 42
-22 6 -45 13 -51 14 -86 24 -129 38 -230 76 -326 123 -655 321 -915 551 -119
105 -291 281 -365 371 -22 28 -51 63 -65 80 -102 123 -228 319 -318 496 -113
221 -187 426 -241 662 -29 129 -36 168 -47 253 -3 22 -7 51 -10 65 -25 142
-25 726 1 803 2 7 6 40 9 73 3 34 8 68 10 75 3 8 7 28 10 44 20 137 112 452
167 572 10 24 19 46 19 49 0 8 113 234 147 293 33 58 172 269 194 296 9 11 39
47 66 81 224 283 551 577 822 740 130 78 141 84 241 135 227 114 471 197 730
248 157 31 165 32 345 51 81 8 529 6 575 -3 14 -3 48 -8 75 -11 377 -46 867
-223 1210 -437 57 -36 309 -203 324 -215 9 -7 61 -48 116 -90 55 -43 102 -81
105 -84 3 -3 33 -29 66 -58 l62 -52 39 38 c41 37 190 173 222 202 21 17 189
170 271 246 30 28 73 67 95 86 22 20 66 60 98 90 l59 53 -93 80 c-51 44 -99
87 -108 95 -9 8 -37 31 -61 50 -25 19 -47 37 -50 41 -3 3 -61 49 -130 101
-258 197 -534 369 -815 508 -174 86 -269 130 -280 130 -3 0 -24 9 -48 19 -132
60 -530 180 -677 205 -19 3 -46 8 -60 11 -42 9 -202 33 -255 40 -27 3 -66 7
-85 10 -19 2 -93 7 -165 11 -191 9 -206 10 -208 8z"/>
<path d="M1400 24420 c-4 -3 -8 -1830 -8 -4061 l0 -4056 1802 -1 c990 0 1808
1 1816 4 13 3 15 38 14 246 -1 134 -2 246 -3 249 0 4 -697 7 -1548 7 -852 1
-1555 1 -1563 1 -13 1 -15 431 -15 3808 l0 3808 -243 0 c-134 0 -247 -2 -252
-5z"/>
<path d="M6289 24400 c0 -32 0 -8024 0 -8066 l1 -31 250 0 250 0 0 4061 0
4061 -250 0 -250 0 -1 -25z"/>
<path d="M16402 20365 l3 -4060 250 0 250 0 0 1805 0 1805 1665 0 1665 0 0
-1805 0 -1805 253 -1 252 -2 0 4062 0 4061 -247 -1 c-137 -1 -250 -2 -253 -3
-3 0 -5 -900 -5 -1999 l0 -1997 -1660 1 c-913 1 -1662 2 -1665 3 -3 0 -5 899
-5 1996 0 1097 -2 1996 -5 1996 -3 1 -116 2 -253 3 l-247 1 2 -4060z"/>
<path d="M21703 24423 c-6 -2 -8 -283 -4 -470 l1 -33 1020 0 1020 0 0 -3809 0
-3809 253 1 252 2 0 3805 0 3805 1020 5 1020 5 0 250 0 250 -2287 0 c-1259 0
-2291 -1 -2295 -2z"/>
<path d="M27249 24400 c-4 -190 0 -8081 5 -8088 3 -6 756 -9 2041 -9 l2035 0
1 31 c1 39 1 447 0 462 -1 9 -471 12 -1788 11 l-1788 0 -3 1652 -2 1651 62 0
c35 1 840 1 1791 1 l1727 0 1 45 c0 24 1 118 1 209 0 91 -1 185 -1 209 l-1 43
-1772 1 c-975 0 -1781 1 -1790 1 -17 1 -18 87 -18 1651 l0 1650 1790 0 1790 0
1 33 c1 44 1 405 0 442 l-1 30 -2040 0 -2040 0 -1 -25z"/>
<path d="M32670 20364 l0 -4061 253 1 252 1 1 3575 c1 1966 2 3580 3 3585 1 6
7 1 13 -10 6 -11 61 -108 123 -215 62 -107 123 -213 136 -236 13 -23 53 -92
89 -153 36 -62 74 -129 86 -150 11 -20 55 -96 98 -170 43 -74 86 -149 96 -165
30 -53 310 -538 350 -606 21 -36 113 -195 206 -355 170 -295 239 -414 261
-450 7 -11 15 -27 19 -35 4 -8 38 -67 75 -130 37 -63 106 -182 154 -265 48
-82 99 -170 113 -195 27 -48 57 -101 257 -445 202 -349 391 -677 409 -710 9
-16 25 -43 35 -60 17 -28 68 -115 113 -195 38 -66 206 -355 227 -390 11 -19
24 -42 28 -50 4 -8 26 -46 48 -85 23 -38 110 -187 192 -330 83 -143 266 -460
408 -705 142 -245 269 -465 283 -490 14 -25 63 -110 110 -190 46 -80 93 -161
104 -180 12 -19 32 -55 46 -80 14 -25 35 -61 48 -81 l23 -37 245 1 246 0 -2
4061 -3 4061 -240 1 c-132 0 -245 -3 -250 -7 -7 -5 -10 -1192 -10 -3548 0
-1948 -2 -3541 -5 -3541 -3 0 -14 17 -25 38 -11 20 -29 53 -41 72 -12 19 -83
143 -159 275 -76 132 -161 281 -190 330 -131 224 -269 463 -285 490 -22 39
-92 162 -105 183 -5 10 -28 49 -49 87 -22 39 -66 114 -98 168 -32 53 -58 100
-58 102 0 3 -17 34 -38 68 -33 52 -194 328 -252 432 -37 65 -149 260 -265 460
-67 116 -184 318 -260 450 -76 132 -170 294 -208 360 -61 106 -157 271 -207
360 -9 17 -37 64 -62 105 -24 41 -47 82 -51 90 -4 8 -17 31 -28 50 -27 45
-338 580 -371 640 -28 50 -114 197 -128 220 -30 48 -210 362 -210 366 0 2 -11
23 -26 45 -14 22 -34 57 -46 77 -20 36 -96 168 -393 682 -376 650 -490 847
-504 873 -45 80 -8 72 -311 72 l-270 0 0 -4061z"/>
<path d="M39306 20370 c1 -2217 4 -4034 7 -4037 8 -8 1984 -7 2077 1 160 14
188 18 285 37 279 56 554 188 850 410 179 134 423 367 570 543 22 27 45 54 51
60 27 28 176 242 222 318 101 167 166 303 251 528 23 60 86 287 95 341 3 19 8
45 11 59 2 14 7 36 10 50 45 225 55 711 20 970 -5 32 -8 56 -21 145 -3 17 -7
41 -10 55 -3 14 -8 39 -11 55 -6 46 -51 210 -82 305 -84 254 -218 502 -377
697 -93 114 -264 284 -404 402 -41 35 -86 73 -100 85 -34 29 -239 175 -296
210 -130 81 -325 164 -462 196 -55 13 -59 17 -23 25 43 10 57 14 96 28 335
122 526 356 571 700 16 129 5 352 -27 502 -33 160 -56 226 -124 372 -141 297
-375 553 -690 751 -88 55 -341 157 -435 176 -14 3 -52 10 -85 16 -33 7 -71 15
-85 18 -14 3 -443 7 -955 9 l-930 4 1 -4031z m1806 2967 c154 -37 291 -124
373 -237 89 -123 122 -228 125 -390 3 -260 -118 -458 -348 -567 -122 -57 -165
-62 -557 -63 l-352 0 0 632 c0 348 3 635 8 638 4 3 160 5 346 4 273 -1 351 -4
405 -17z m-27 -2341 c92 -8 132 -14 195 -28 25 -5 56 -12 70 -14 14 -3 77 -22
141 -44 244 -81 453 -210 660 -407 310 -296 499 -673 545 -1083 15 -129 9
-368 -11 -515 -28 -200 -135 -487 -250 -665 -139 -217 -382 -472 -620 -652
-99 -74 -258 -159 -330 -174 -11 -3 -40 -10 -65 -16 -30 -8 -211 -13 -556 -15
l-511 -3 0 1805 c0 1458 2 1807 13 1813 15 9 608 7 719 -2z"/>
<path d="M44986 20370 c1 -2217 4 -4033 7 -4037 5 -4 4220 -8 4328 -4 14 1 16
54 16 526 l0 525 -1651 2 -1651 3 0 1223 c0 745 4 1226 9 1230 5 3 748 5 1651
5 l1642 0 0 524 0 523 -1651 2 -1651 3 0 1223 c0 807 3 1226 10 1230 5 4 748
7 1650 7 l1640 0 1 523 1 522 -2176 0 -2176 0 1 -4030z"/>
<path d="M50723 20365 c0 -3676 2 -4035 16 -4036 26 -1 1005 -1 1019 0 9 1 12
266 12 1291 l0 1290 475 0 476 0 47 -76 c26 -42 59 -95 73 -117 15 -23 107
-170 204 -327 98 -157 192 -307 210 -335 18 -27 153 -243 300 -480 147 -236
293 -470 325 -520 31 -49 144 -229 250 -400 106 -170 196 -314 201 -319 7 -8
1255 -13 1264 -5 2 3 -33 62 -78 131 -145 225 -239 370 -323 498 -44 69 -161
249 -259 400 -98 151 -210 325 -250 385 -39 61 -118 182 -175 270 -114 177
-223 345 -308 475 -30 47 -79 121 -107 165 -29 44 -90 139 -137 210 -148 228
-147 225 -127 225 24 0 186 83 263 134 80 54 185 135 255 198 20 17 56 49 81
71 81 71 265 254 333 329 229 253 395 521 518 830 35 87 92 274 104 335 2 13
6 26 8 31 3 4 8 28 12 52 3 25 10 63 15 85 4 22 11 69 15 105 4 36 9 73 11 84
7 36 16 232 16 331 -2 591 -174 1123 -510 1583 -162 222 -381 444 -589 599
-43 32 -80 60 -83 64 -3 3 -57 37 -120 76 -167 103 -334 184 -526 256 -37 14
-239 75 -274 82 -8 2 -69 16 -135 32 l-120 28 -1191 3 -1191 3 0 -4036z m2222
2970 c55 -7 132 -20 170 -30 39 -9 77 -18 85 -20 8 -2 15 -4 15 -5 0 -1 7 -3
15 -5 35 -7 187 -70 258 -107 417 -218 738 -607 861 -1043 45 -162 56 -252 56
-465 0 -217 -15 -332 -66 -502 -129 -434 -467 -825 -895 -1035 -97 -48 -253
-103 -336 -118 -13 -3 -43 -9 -68 -14 -98 -22 -155 -24 -702 -26 l-568 -2 0
1694 0 1694 538 -2 c369 -1 568 -5 637 -14z"/>
<path d="M48420 15144 c-69 -18 -124 -56 -171 -118 -47 -62 -58 -102 -55 -195
2 -92 27 -145 96 -211 185 -177 497 -55 517 202 6 76 -6 127 -46 190 -71 112
-210 165 -341 132z"/>
<path d="M49222 15144 c-230 -60 -307 -345 -140 -516 145 -148 403 -108 498
78 34 66 38 193 10 260 -59 137 -222 216 -368 178z"/>
<path d="M48747 14324 c-1 -1 -27 -5 -57 -9 -65 -7 -106 -13 -140 -20 -14 -3
-36 -7 -49 -10 -223 -42 -517 -190 -716 -359 -362 -308 -576 -701 -623 -1146
-10 -94 -8 -354 3 -440 20 -156 69 -330 135 -480 29 -66 143 -267 159 -280 3
-3 26 -32 51 -65 63 -83 230 -251 324 -324 244 -191 502 -301 821 -348 63 -10
423 -9 490 1 33 5 69 10 80 11 65 10 229 55 308 86 149 57 361 181 465 271 62
54 236 230 278 281 70 87 155 220 205 323 50 105 113 281 123 348 4 21 8 41
11 45 2 4 7 30 11 57 3 27 8 58 11 69 3 11 7 103 9 205 5 317 -46 560 -173
815 -164 330 -471 635 -808 803 -144 71 -380 140 -540 158 -57 6 -373 13 -378
8z m353 -459 c14 -3 41 -8 60 -11 99 -18 221 -59 320 -109 63 -31 201 -122
245 -160 197 -173 312 -332 394 -544 32 -83 33 -87 55 -196 26 -130 35 -308
21 -415 -44 -328 -160 -561 -394 -789 -67 -65 -211 -181 -225 -181 -3 0 -27
-13 -54 -29 -64 -37 -221 -100 -292 -117 -482 -111 -923 14 -1259 356 -179
183 -294 398 -347 645 -22 105 -27 352 -9 467 41 268 158 500 354 701 197 203
462 343 711 376 47 6 96 13 110 15 35 4 280 -2 310 -9z"/>
<path d="M32699 14316 c-2 -2 -33 -7 -69 -10 -159 -17 -362 -77 -518 -153
-320 -157 -610 -433 -782 -748 -18 -33 -36 -64 -40 -70 -13 -17 -79 -197 -100
-270 -45 -158 -64 -308 -64 -500 1 -214 26 -375 88 -560 87 -259 219 -462 440
-680 176 -173 347 -288 549 -370 83 -34 234 -81 291 -90 17 -3 38 -8 46 -10
66 -19 429 -27 550 -12 74 9 236 48 325 78 125 43 431 202 443 231 2 4 8 8 13
8 10 0 164 116 215 163 18 15 40 34 50 42 18 14 18 15 -11 43 -31 29 -216 195
-274 245 l-33 29 -32 -30 c-53 -50 -190 -147 -283 -200 -215 -122 -413 -176
-648 -175 -350 1 -652 129 -906 385 -245 248 -367 537 -374 884 -2 140 7 226
35 342 58 235 160 413 345 598 263 264 563 387 930 380 204 -4 359 -42 538
-132 135 -67 171 -91 373 -247 31 -24 14 -37 297 224 l61 56 -44 39 c-162 147
-421 312 -615 391 -96 39 -256 84 -385 108 -38 7 -405 17 -411 11z"/>
<path d="M39460 14305 c-315 -68 -571 -332 -620 -641 -11 -67 -14 -223 -6
-264 3 -14 8 -38 12 -55 57 -293 299 -531 709 -696 257 -103 372 -173 505
-308 140 -142 191 -263 191 -456 -1 -200 -104 -390 -278 -509 -102 -69 -195
-99 -321 -102 -116 -3 -197 13 -287 55 -56 26 -163 104 -193 140 -57 70 -115
188 -142 290 -10 39 -16 69 -36 191 -3 19 -7 36 -8 37 -2 2 -120 -39 -156 -54
-8 -3 -19 -7 -25 -9 -12 -3 -174 -62 -195 -71 -20 -8 -27 -10 -46 -12 -8 0
-13 -5 -10 -10 4 -5 13 -46 22 -91 23 -121 69 -253 125 -358 27 -51 54 -99 59
-105 142 -177 239 -261 388 -336 165 -83 298 -112 502 -107 158 4 174 6 298
42 255 74 511 292 636 540 76 152 110 305 110 494 -1 80 -9 175 -18 200 -3 8
-7 26 -10 40 -7 46 -55 177 -82 226 -59 108 -170 251 -241 311 -21 17 -49 42
-63 55 -103 97 -331 229 -507 291 -255 92 -459 257 -491 396 -7 31 -7 145 -1
181 8 44 47 114 86 154 96 99 204 130 345 101 130 -27 205 -104 278 -288 12
-32 28 -56 34 -54 6 3 94 37 196 77 102 40 187 75 190 77 17 15 -100 270 -158
343 -111 140 -292 253 -453 285 -70 14 -273 14 -339 0z"/>
<path d="M42570 14305 c-137 -20 -161 -25 -235 -46 -80 -23 -117 -35 -162 -55
-17 -8 -34 -14 -38 -14 -16 0 -196 -96 -264 -142 -405 -270 -672 -659 -768
-1117 -23 -112 -26 -150 -27 -336 -1 -222 3 -275 35 -420 106 -491 464 -939
941 -1177 53 -26 103 -48 110 -48 8 0 18 -4 24 -9 11 -10 114 -43 204 -65 146
-35 212 -41 430 -41 164 1 212 4 305 24 313 66 600 210 878 440 l97 82 -52 48
c-29 26 -104 94 -167 149 l-113 102 -57 -46 c-219 -177 -469 -303 -671 -338
-161 -28 -351 -25 -508 8 -247 53 -437 160 -632 356 -158 158 -254 308 -315
490 -78 235 -88 474 -31 745 26 122 118 317 207 434 206 277 478 453 794 516
144 29 409 26 530 -6 22 -6 47 -12 55 -14 36 -8 171 -60 235 -92 93 -47 223
-132 312 -204 39 -33 75 -59 78 -59 7 0 111 92 235 207 25 23 57 52 72 66 l27
25 -57 49 c-315 272 -648 435 -995 487 -113 17 -362 17 -477 1z"/>
<path d="M19804 14275 c-2 -5 -3 -775 -2 -1710 l3 -1700 913 0 c539 0 916 4
919 9 4 5 7 105 7 223 l1 213 -90 1 c-49 0 -365 0 -701 0 l-611 1 0 519 0 519
56 1 c31 0 345 0 699 1 353 0 642 3 643 6 1 9 1 414 0 428 -1 8 -198 11 -683
12 -376 0 -690 1 -699 1 -14 1 -16 53 -16 519 l0 519 686 -1 c377 -1 693 2
701 5 13 6 15 40 14 218 0 116 -4 214 -7 218 -12 11 -1829 9 -1833 -2z"/>
<path d="M22273 14277 c-4 -7 -7 -3105 -4 -3367 l1 -45 220 0 220 0 1 45 c0
60 0 3123 0 3265 l-1 110 -216 0 c-119 0 -218 -4 -221 -8z"/>
<path d="M23407 14278 c-9 -5 -12 -411 -12 -1710 l0 -1703 220 0 220 0 5 1227
5 1226 85 -146 c47 -80 97 -168 112 -194 68 -120 223 -387 248 -428 15 -25 40
-67 56 -95 39 -70 83 -147 94 -165 11 -17 74 -127 278 -480 74 -129 154 -266
177 -305 23 -38 54 -92 70 -120 35 -65 206 -360 260 -450 l42 -70 184 -1 c101
0 189 1 194 3 12 4 14 3397 3 3409 -10 10 -429 11 -435 1 -3 -4 -5 -551 -5
-1214 -1 -1133 -2 -1205 -18 -1184 -9 13 -25 39 -36 59 -10 21 -78 139 -150
263 -72 124 -166 286 -208 360 -43 74 -81 141 -87 149 -22 36 -319 552 -319
555 0 1 -18 33 -41 70 -40 66 -57 95 -107 185 -14 25 -36 62 -49 82 -12 21
-23 39 -23 42 0 2 -24 43 -53 92 -29 49 -56 96 -60 104 -5 8 -13 24 -20 35 -7
11 -61 105 -120 208 -60 103 -113 190 -119 194 -15 8 -376 10 -391 1z"/>
<path d="M26294 12575 l1 -1710 210 -1 c116 0 215 1 220 3 7 2 10 253 10 739
0 405 2 739 5 742 3 4 273 7 600 7 l595 0 0 220 0 220 -590 2 c-324 1 -595 2
-600 2 -7 1 -10 179 -10 519 l0 519 585 1 c322 0 592 1 601 1 15 1 17 24 16
221 0 151 -4 220 -11 221 -6 0 -376 1 -822 2 l-812 2 2 -1710z"/>
<path d="M29361 14280 c-3 -3 -14 -23 -23 -45 -14 -33 -557 -1525 -605 -1660
-36 -102 -116 -322 -123 -340 -12 -28 -491 -1348 -493 -1359 -1 -6 93 -10 234
-11 l236 0 37 105 c21 58 44 119 52 137 8 17 14 34 14 37 0 4 15 48 34 99 19
51 51 139 71 197 21 58 59 164 85 235 27 72 69 190 95 263 l47 132 47 1 c168
3 853 0 856 -3 5 -4 176 -470 235 -638 17 -47 70 -193 118 -325 l88 -240 220
0 c120 -1 226 1 235 3 14 3 13 14 -13 85 -16 45 -33 91 -38 102 -5 11 -16 40
-24 65 -8 25 -33 95 -56 155 -23 61 -43 117 -45 125 -5 19 -114 318 -125 345
-5 11 -64 171 -130 355 -67 184 -148 407 -180 495 -143 389 -362 991 -365
1005 -2 8 -25 71 -50 140 -96 258 -114 307 -149 403 -20 53 -36 104 -36 112 0
7 -5 17 -11 21 -13 8 -227 12 -238 4z m139 -1037 c112 -309 233 -642 240 -658
19 -43 22 -65 8 -66 -77 -5 -551 -2 -554 3 -3 4 3 24 12 45 9 21 17 43 18 48
2 6 6 17 9 25 3 8 29 80 57 160 28 80 67 186 85 235 18 50 45 124 60 165 14
41 28 81 31 89 6 19 15 9 34 -46z"/>
<path d="M34698 14282 c-13 -3 -15 -195 -14 -1710 l1 -1707 222 0 222 0 0 660
c0 363 0 681 0 706 l1 46 523 -1 522 -1 1 -698 c1 -384 5 -701 9 -705 10 -10
426 -9 432 2 7 11 8 3390 0 3402 -6 10 -424 11 -434 1 -3 -4 -6 -355 -6 -780
l0 -774 -526 0 -526 0 2 779 c1 428 -2 778 -5 779 -23 2 -411 3 -424 1z"/>
<path d="M44638 14279 c-7 -4 -10 -566 -10 -1690 1 -926 1 -1693 2 -1704 0
-19 7 -20 220 -20 l220 0 0 706 0 706 525 0 c471 0 525 -2 526 -16 0 -9 1
-327 2 -706 l0 -690 216 1 c119 1 219 2 223 3 3 0 6 768 6 1706 0 1268 -3
1705 -12 1706 -15 1 -397 1 -417 0 -14 -1 -16 -74 -15 -779 l1 -779 -527 0
-528 0 0 779 c0 615 -3 778 -12 779 -62 4 -412 3 -420 -2z"/>
<path d="M51242 14276 c-8 -14 -8 -3386 0 -3399 5 -9 71 -12 223 -12 l215 0 0
1230 0 1230 30 -47 c17 -27 30 -51 30 -54 0 -3 8 -18 19 -32 10 -15 29 -47 43
-72 14 -25 166 -288 338 -585 172 -297 322 -556 332 -575 11 -19 44 -75 73
-125 53 -91 153 -265 185 -320 41 -72 248 -430 310 -535 l68 -115 189 1 c103
1 190 2 193 3 8 2 6 3399 -2 3407 -4 4 -104 7 -223 8 l-215 1 0 -1215 c0
-1208 -1 -1215 -20 -1190 -11 14 -20 28 -20 32 0 4 -38 71 -84 150 -81 139
-102 175 -154 268 -14 25 -53 92 -87 150 -34 58 -73 125 -87 150 -14 25 -58
101 -98 170 -40 68 -81 138 -90 155 -9 16 -43 75 -75 130 -32 55 -66 114 -75
130 -141 245 -331 574 -362 624 -21 34 -38 64 -38 66 0 2 -26 48 -58 102 -32
54 -61 105 -65 113 -4 8 -21 38 -37 65 -17 28 -36 60 -42 73 -6 12 -16 22 -22
23 -77 6 -389 2 -394 -5z"/>
<path d="M55646 14280 c-2 -5 0 -3373 3 -3400 1 -13 33 -15 221 -15 l220 0 0
706 0 706 525 0 525 0 2 -706 3 -706 220 0 220 0 0 1704 c0 1020 -4 1705 -9
1709 -7 4 -364 7 -423 3 -10 -1 -13 -164 -13 -779 l0 -779 -525 0 -525 1 0
778 c0 615 -3 778 -12 779 -56 4 -430 3 -432 -1z"/>
<path d="M58277 14280 c-16 -6 -18 -3409 -2 -3411 5 -1 106 -2 223 -3 l212 -1
-2 1709 -3 1709 -208 1 c-114 1 -213 -1 -220 -4z"/>
<path d="M59404 14275 c-10 -8 -12 -347 -11 -1710 l2 -1700 917 0 c607 0 919
3 921 10 3 9 1 389 -2 425 -1 13 -85 15 -696 14 -636 -2 -695 0 -696 15 0 9
-1 242 -2 518 l-2 503 25 1 c14 0 329 1 700 2 l675 2 0 218 c0 186 -2 218 -15
221 -8 2 -320 4 -693 3 -472 0 -681 3 -685 10 -4 6 -7 240 -6 520 l1 508 699
1 699 1 0 217 c0 120 -2 220 -5 224 -8 11 -1811 8 -1826 -3z"/>
<path d="M61837 14282 c-16 -3 -17 -121 -17 -1710 l0 -1707 220 0 c140 0 220
4 221 10 0 5 1 251 1 546 l1 536 201 -1 200 -1 107 -170 c59 -93 133 -210 164
-260 112 -180 214 -343 313 -500 l100 -160 266 0 c146 0 266 2 266 5 0 5 -52
87 -290 453 -272 421 -319 492 -329 504 -6 7 -11 15 -11 18 0 4 -15 27 -32 53
-37 53 -45 66 -71 111 -17 30 -17 31 1 31 58 0 301 203 421 350 20 25 38 47
41 50 26 24 138 234 145 271 2 10 8 26 14 37 23 44 53 231 55 352 4 224 -50
437 -157 614 -72 120 -223 285 -313 342 -16 10 -32 22 -35 27 -13 18 -206 116
-274 139 -58 20 -152 44 -210 53 -40 7 -966 13 -998 7z m996 -466 c200 -48
381 -194 472 -381 24 -49 47 -103 50 -120 4 -16 9 -46 13 -65 4 -19 7 -84 7
-145 -1 -119 -22 -211 -72 -310 -67 -131 -192 -254 -328 -320 -122 -59 -179
-68 -461 -69 l-251 -2 0 711 c0 390 1 712 3 715 1 3 114 5 251 4 190 -1 264
-5 316 -18z"/>
<path d="M16795 11450 c-93 -23 -180 -95 -218 -180 -31 -71 -28 -182 7 -253
34 -69 112 -141 179 -163 119 -39 257 -3 340 91 65 72 88 197 56 302 -28 89
-121 181 -202 199 -42 10 -132 12 -162 4z"/>
<path d="M17823 11446 c-224 -70 -297 -349 -134 -514 73 -74 164 -104 269 -91
251 32 354 356 168 531 -23 21 -61 48 -86 59 -54 26 -158 33 -217 15z"/>
<path d="M18870 11446 c-56 -16 -137 -74 -167 -118 -56 -84 -70 -191 -38 -289
25 -74 112 -160 185 -182 75 -22 105 -25 164 -14 100 18 180 81 225 176 34 73
35 182 4 253 -30 66 -94 132 -154 158 -62 26 -159 34 -219 16z"/>
</g>
</svg>
